<svg xmlns="http://www.w3.org/2000/svg" xmlns:xlink="http://www.w3.org/1999/xlink" contentStyleType="text/css" height="483px" preserveAspectRatio="none" style="width:384px;height:483px;background:#FFFFFF;" version="1.1" viewBox="0 0 384 483" width="384px" zoomAndPan="magnify"><defs/><g><!--class ClassLoader--><g id="elem_ClassLoader"><rect codeLine="1" fill="#F1F1F1" height="113.1875" id="ClassLoader" rx="2.5" ry="2.5" style="stroke:#181818;stroke-width:0.5;" width="191.1631" x="82.24" y="7"/><ellipse cx="131.0554" cy="23" fill="#A9DCDF" rx="11" ry="11" style="stroke:#181818;stroke-width:1;"/><path d="M131.1648,18.3438 L130.0086,23.4219 L132.3367,23.4219 L131.1648,18.3438 Z M129.6804,16.1094 L132.6648,16.1094 L136.0242,28.5 L133.5711,28.5 L132.8054,25.4375 L129.5242,25.4375 L128.7742,28.5 L126.3367,28.5 L129.6804,16.1094 Z " fill="#000000"/><text fill="#000000" font-family="sans-serif" font-size="14" font-style="italic" lengthAdjust="spacing" textLength="85.0322" x="151.5554" y="27.8467">ClassLoader</text><line style="stroke:#181818;stroke-width:0.5;" x1="83.24" x2="272.4031" y1="39" y2="39"/><line style="stroke:#181818;stroke-width:0.5;" x1="83.24" x2="272.4031" y1="47" y2="47"/><text fill="#000000" font-family="sans-serif" font-size="14" lengthAdjust="spacing" textLength="119.458" x="88.24" y="63.9951">loadClass(String)</text><text fill="#000000" font-family="sans-serif" font-size="14" lengthAdjust="spacing" textLength="166.4961" x="88.24" y="80.292">resolveClass(Class&lt;?&gt;)</text><text fill="#000000" font-family="sans-serif" font-size="14" lengthAdjust="spacing" textLength="116.1152" x="88.24" y="96.5889">findClass(String)</text><text fill="#000000" font-family="sans-serif" font-size="14" lengthAdjust="spacing" textLength="179.1631" x="88.24" y="112.8857">defineClass(byte[],int,int)</text></g><!--class SecureClassLoader--><g id="elem_SecureClassLoader"><rect codeLine="8" fill="#F1F1F1" height="48" id="SecureClassLoader" rx="2.5" ry="2.5" style="stroke:#181818;stroke-width:0.5;" width="165.4717" x="95.09" y="180.19"/><ellipse cx="110.09" cy="196.19" fill="#ADD1B2" rx="11" ry="11" style="stroke:#181818;stroke-width:1;"/><path d="M113.0588,201.8306 Q112.4806,202.1275 111.84,202.2681 Q111.1994,202.4244 110.4963,202.4244 Q107.9963,202.4244 106.6681,200.7838 Q105.3556,199.1275 105.3556,196.0025 Q105.3556,192.8775 106.6681,191.2213 Q107.9963,189.565 110.4963,189.565 Q111.1994,189.565 111.84,189.7213 Q112.4963,189.8775 113.0588,190.1744 L113.0588,192.8931 Q112.4338,192.315 111.84,192.0494 Q111.2463,191.7681 110.6213,191.7681 Q109.2775,191.7681 108.59,192.8463 Q107.9025,193.9088 107.9025,196.0025 Q107.9025,198.0963 108.59,199.1744 Q109.2775,200.2369 110.6213,200.2369 Q111.2463,200.2369 111.84,199.9713 Q112.4338,199.69 113.0588,199.1119 L113.0588,201.8306 Z " fill="#000000"/><text fill="#000000" font-family="sans-serif" font-size="14" lengthAdjust="spacing" textLength="133.4717" x="124.09" y="201.0367">SecureClassLoader</text><line style="stroke:#181818;stroke-width:0.5;" x1="96.09" x2="259.5617" y1="212.19" y2="212.19"/><line style="stroke:#181818;stroke-width:0.5;" x1="96.09" x2="259.5617" y1="220.19" y2="220.19"/></g><!--class URLClassLoader--><g id="elem_URLClassLoader"><rect codeLine="11" fill="#F1F1F1" height="64.2969" id="URLClassLoader" rx="2.5" ry="2.5" style="stroke:#181818;stroke-width:0.5;" width="144.8066" x="105.42" y="288.19"/><ellipse cx="120.42" cy="304.19" fill="#ADD1B2" rx="11" ry="11" style="stroke:#181818;stroke-width:1;"/><path d="M123.3888,309.8306 Q122.8106,310.1275 122.17,310.2681 Q121.5294,310.4244 120.8263,310.4244 Q118.3263,310.4244 116.9981,308.7837 Q115.6856,307.1275 115.6856,304.0025 Q115.6856,300.8775 116.9981,299.2212 Q118.3263,297.565 120.8263,297.565 Q121.5294,297.565 122.17,297.7212 Q122.8263,297.8775 123.3888,298.1744 L123.3888,300.8931 Q122.7638,300.315 122.17,300.0494 Q121.5763,299.7681 120.9513,299.7681 Q119.6075,299.7681 118.92,300.8462 Q118.2325,301.9087 118.2325,304.0025 Q118.2325,306.0962 118.92,307.1744 Q119.6075,308.2369 120.9513,308.2369 Q121.5763,308.2369 122.17,307.9712 Q122.7638,307.69 123.3888,307.1119 L123.3888,309.8306 Z " fill="#000000"/><text fill="#000000" font-family="sans-serif" font-size="14" lengthAdjust="spacing" textLength="112.8066" x="134.42" y="309.0367">URLClassLoader</text><line style="stroke:#181818;stroke-width:0.5;" x1="106.42" x2="249.2266" y1="320.19" y2="320.19"/><line style="stroke:#181818;stroke-width:0.5;" x1="106.42" x2="249.2266" y1="328.19" y2="328.19"/><text fill="#000000" font-family="sans-serif" font-size="14" lengthAdjust="spacing" textLength="116.1152" x="111.42" y="345.1851">findClass(String)</text></g><!--class ExtClassLoader--><g id="elem_ExtClassLoader"><rect codeLine="15" fill="#F1F1F1" height="48" id="ExtClassLoader" rx="2.5" ry="2.5" style="stroke:#181818;stroke-width:0.5;" width="139.6523" x="7" y="420.63"/><ellipse cx="22" cy="436.63" fill="#ADD1B2" rx="11" ry="11" style="stroke:#181818;stroke-width:1;"/><path d="M24.9688,442.2706 Q24.3906,442.5675 23.75,442.7081 Q23.1094,442.8644 22.4063,442.8644 Q19.9063,442.8644 18.5781,441.2238 Q17.2656,439.5675 17.2656,436.4425 Q17.2656,433.3175 18.5781,431.6613 Q19.9063,430.005 22.4063,430.005 Q23.1094,430.005 23.75,430.1613 Q24.4063,430.3175 24.9688,430.6144 L24.9688,433.3331 Q24.3438,432.755 23.75,432.4894 Q23.1563,432.2081 22.5313,432.2081 Q21.1875,432.2081 20.5,433.2863 Q19.8125,434.3488 19.8125,436.4425 Q19.8125,438.5363 20.5,439.6144 Q21.1875,440.6769 22.5313,440.6769 Q23.1563,440.6769 23.75,440.4113 Q24.3438,440.13 24.9688,439.5519 L24.9688,442.2706 Z " fill="#000000"/><text fill="#000000" font-family="sans-serif" font-size="14" lengthAdjust="spacing" textLength="107.6523" x="36" y="441.4767">ExtClassLoader</text><line style="stroke:#181818;stroke-width:0.5;" x1="8" x2="145.6523" y1="452.63" y2="452.63"/><line style="stroke:#181818;stroke-width:0.5;" x1="8" x2="145.6523" y1="460.63" y2="460.63"/></g><!--class AppClassLoader--><g id="elem_AppClassLoader"><rect codeLine="16" fill="#F1F1F1" height="64.2969" id="AppClassLoader" rx="2.5" ry="2.5" style="stroke:#181818;stroke-width:0.5;" width="196.3311" x="181.66" y="412.48"/><ellipse cx="220.0367" cy="428.48" fill="#ADD1B2" rx="11" ry="11" style="stroke:#181818;stroke-width:1;"/><path d="M223.0055,434.1206 Q222.4273,434.4175 221.7867,434.5581 Q221.1461,434.7144 220.443,434.7144 Q217.943,434.7144 216.6148,433.0737 Q215.3023,431.4175 215.3023,428.2925 Q215.3023,425.1675 216.6148,423.5112 Q217.943,421.855 220.443,421.855 Q221.1461,421.855 221.7867,422.0112 Q222.443,422.1675 223.0055,422.4644 L223.0055,425.1831 Q222.3805,424.605 221.7867,424.3394 Q221.193,424.0581 220.568,424.0581 Q219.2242,424.0581 218.5367,425.1362 Q217.8492,426.1987 217.8492,428.2925 Q217.8492,430.3862 218.5367,431.4644 Q219.2242,432.5269 220.568,432.5269 Q221.193,432.5269 221.7867,432.2612 Q222.3805,431.98 223.0055,431.4019 L223.0055,434.1206 Z " fill="#000000"/><text fill="#000000" font-family="sans-serif" font-size="14" lengthAdjust="spacing" textLength="112.3828" x="239.2315" y="433.3267">AppClassLoader</text><line style="stroke:#181818;stroke-width:0.5;" x1="182.66" x2="376.9911" y1="444.48" y2="444.48"/><line style="stroke:#181818;stroke-width:0.5;" x1="182.66" x2="376.9911" y1="452.48" y2="452.48"/><text fill="#000000" font-family="sans-serif" font-size="14" lengthAdjust="spacing" textLength="184.3311" x="187.66" y="469.4751">loadClass(String, boolean)</text></g><!--reverse link ClassLoader to SecureClassLoader--><g id="link_ClassLoader_SecureClassLoader"><path d="M177.83,138.56 C177.83,159.3 177.83,163.69 177.83,179.92 " fill="none" id="ClassLoader-backto-SecureClassLoader" style="stroke:#181818;stroke-width:1;"/><polygon fill="none" points="177.83,120.56,171.83,138.56,183.83,138.56,177.83,120.56" style="stroke:#181818;stroke-width:1;"/></g><!--reverse link SecureClassLoader to URLClassLoader--><g id="link_SecureClassLoader_URLClassLoader"><path d="M177.83,246.56 C177.83,263.65 177.83,269.02 177.83,287.77 " fill="none" id="SecureClassLoader-backto-URLClassLoader" style="stroke:#181818;stroke-width:1;"/><polygon fill="none" points="177.83,228.56,171.83,246.56,183.83,246.56,177.83,228.56" style="stroke:#181818;stroke-width:1;"/></g><!--reverse link URLClassLoader to ExtClassLoader--><g id="link_URLClassLoader_ExtClassLoader"><path d="M140.357,366.708 C122.937,387.798 111.85,401.22 96.05,420.36 " fill="none" id="URLClassLoader-backto-ExtClassLoader" style="stroke:#181818;stroke-width:1;"/><polygon fill="none" points="151.82,352.83,135.731,362.887,144.983,370.529,151.82,352.83" style="stroke:#181818;stroke-width:1;"/></g><!--reverse link URLClassLoader to AppClassLoader--><g id="link_URLClassLoader_AppClassLoader"><path d="M215.6193,366.653 C230.8493,384.913 238.43,394 253.65,412.24 " fill="none" id="URLClassLoader-backto-AppClassLoader" style="stroke:#181818;stroke-width:1;"/><polygon fill="none" points="204.09,352.83,211.0116,370.4961,220.2269,362.8099,204.09,352.83" style="stroke:#181818;stroke-width:1;"/></g><!--SRC=[IqmgBYbAJ2vHICv9B2vMS0QHFlc9AQb52jLS2a2G0-I0HJM2Iueoyz8rmQ95gSNvEMMf40amQMDl1v5Aoyp3eY4b5IWELPzKMP8Q7QkJcLS2mffSjLnS4Dk3KvDBYrAHtP1QKPAQbuBkBhY6q20VRAenpQd6uJIWIM011TUA4cmceLbGNGjLxbXGG8noh26eev2Kdv-JcfW7j1u0]--></g></svg>