<svg id="SvgjsSvg1006" width="1062" height="650.8000030517578" xmlns="http://www.w3.org/2000/svg" version="1.1" xmlns:xlink="http://www.w3.org/1999/xlink" xmlns:svgjs="http://svgjs.com/svgjs"><defs id="SvgjsDefs1007"><pattern patternUnits="userSpaceOnUse" id="pattern_mark_0" width="300" height="300"><text x="150" y="100" fill="rgba(229,229,229,0.8)" font-size="18" transform="rotate(-45, 150, 150)" style="dominant-baseline: middle; text-anchor: middle;">jaune162.blog</text></pattern><pattern patternUnits="userSpaceOnUse" id="pattern_mark_1" width="300" height="300"><text x="150" y="200" fill="rgba(229,229,229,0.8)" font-size="18" transform="rotate(-45, 150, 150)" style="dominant-baseline: middle; text-anchor: middle;"></text></pattern><marker id="SvgjsMarker1053" markerWidth="13" markerHeight="9" refX="9.5" refY="4.5" viewBox="0 0 13 9" orient="auto" markerUnits="userSpaceOnUse" stroke-dasharray="0,0"><path id="SvgjsPath1054" d="M0,0 L13,4.5 L0,9 L0,0" fill="#323232" stroke="#323232" stroke-width="1"></path></marker><marker id="SvgjsMarker1057" markerWidth="13" markerHeight="9" refX="9.5" refY="4.5" viewBox="0 0 13 9" orient="auto" markerUnits="userSpaceOnUse" stroke-dasharray="0,0"><path id="SvgjsPath1058" d="M0,0 L13,4.5 L0,9 L0,0" fill="#323232" stroke="#323232" stroke-width="1"></path></marker><marker id="SvgjsMarker1061" markerWidth="13" markerHeight="9" refX="9.5" refY="4.5" viewBox="0 0 13 9" orient="auto" markerUnits="userSpaceOnUse" stroke-dasharray="0,0"><path id="SvgjsPath1062" d="M0,0 L13,4.5 L0,9 L0,0" fill="#323232" stroke="#323232" stroke-width="1"></path></marker><marker id="SvgjsMarker1065" markerWidth="13" markerHeight="9" refX="9.5" refY="4.5" viewBox="0 0 13 9" orient="auto" markerUnits="userSpaceOnUse" stroke-dasharray="0,0"><path id="SvgjsPath1066" d="M0,0 L13,4.5 L0,9 L0,0" fill="#323232" stroke="#323232" stroke-width="1"></path></marker><marker id="SvgjsMarker1111" markerWidth="13" markerHeight="9" refX="9.5" refY="4.5" viewBox="0 0 13 9" orient="auto" markerUnits="userSpaceOnUse" stroke-dasharray="0,0"><path id="SvgjsPath1112" d="M0,0 L13,4.5 L0,9 L0,0" fill="#323232" stroke="#323232" stroke-width="1"></path></marker><marker id="SvgjsMarker1115" markerWidth="13" markerHeight="9" refX="9.5" refY="4.5" viewBox="0 0 13 9" orient="auto" markerUnits="userSpaceOnUse" stroke-dasharray="0,0"><path id="SvgjsPath1116" d="M0,0 L13,4.5 L0,9 L0,0" fill="#323232" stroke="#323232" stroke-width="1"></path></marker><marker id="SvgjsMarker1119" markerWidth="13" markerHeight="9" refX="9.5" refY="4.5" viewBox="0 0 13 9" orient="auto" markerUnits="userSpaceOnUse" stroke-dasharray="0,0"><path id="SvgjsPath1120" d="M0,0 L13,4.5 L0,9 L0,0" fill="#323232" stroke="#323232" stroke-width="1"></path></marker><marker id="SvgjsMarker1123" markerWidth="13" markerHeight="9" refX="9.5" refY="4.5" viewBox="0 0 13 9" orient="auto" markerUnits="userSpaceOnUse" stroke-dasharray="0,0"><path id="SvgjsPath1124" d="M0,0 L13,4.5 L0,9 L0,0" fill="#323232" stroke="#323232" stroke-width="1"></path></marker></defs><rect id="svgbackgroundid" width="1062" height="650.8000030517578" fill="transparent"></rect><rect id="SvgjsRect1009" width="1062" height="650.8000030517578" fill="url(#pattern_mark_0)"></rect><rect id="SvgjsRect1010" width="1062" height="650.8000030517578" fill="url(#pattern_mark_1)"></rect><g id="SvgjsG1011" transform="translate(151,32)"><path id="SvgjsPath1012" d="M 0 4Q 0 0 4 0L 202 0Q 206 0 206 4L 206 70Q 206 74 202 74L 4 74Q 0 74 0 70Z" stroke="rgba(63,155,253,1)" stroke-width="1.5" fill-opacity="1" fill="#3f9bfd"></path><g id="SvgjsG1013"><text id="SvgjsText1014" font-family="&quot;Microsoft YaHei&quot;, 微软雅黑, Arial" text-anchor="middle" font-size="15px" width="186px" fill="#ffffff" font-weight="400" align="middle" lineHeight="125%" anchor="middle" family="&quot;Microsoft YaHei&quot;, 微软雅黑, Arial" size="15px" weight="400" font-style="" opacity="1" y="15.125" transform="rotate(0)"><tspan id="SvgjsTspan1015" dy="18.75" x="103"><tspan id="SvgjsTspan1016" style="">启动类加载器</tspan></tspan><tspan id="SvgjsTspan1017" dy="18.75" x="103"><tspan id="SvgjsTspan1018" style="">BootStrap ClassLoader</tspan></tspan></text></g></g><g id="SvgjsG1019" transform="translate(151,148)"><path id="SvgjsPath1020" d="M 0 4Q 0 0 4 0L 202 0Q 206 0 206 4L 206 70Q 206 74 202 74L 4 74Q 0 74 0 70Z" stroke="rgba(63,155,253,1)" stroke-width="1.5" fill-opacity="1" fill="#3f9bfd"></path><g id="SvgjsG1021"><text id="SvgjsText1022" font-family="&quot;Microsoft YaHei&quot;, 微软雅黑, Arial" text-anchor="middle" font-size="15px" width="186px" fill="#ffffff" font-weight="400" align="middle" lineHeight="125%" anchor="middle" family="&quot;Microsoft YaHei&quot;, 微软雅黑, Arial" size="15px" weight="400" font-style="" opacity="1" y="15.125" transform="rotate(0)"><tspan id="SvgjsTspan1023" dy="18.75" x="103"><tspan id="SvgjsTspan1024" style="">扩展类加载器</tspan></tspan><tspan id="SvgjsTspan1025" dy="18.75" x="103"><tspan id="SvgjsTspan1026" style="">Ext ClassLoader</tspan></tspan></text></g></g><g id="SvgjsG1027" transform="translate(151,264)"><path id="SvgjsPath1028" d="M 0 4Q 0 0 4 0L 202 0Q 206 0 206 4L 206 70Q 206 74 202 74L 4 74Q 0 74 0 70Z" stroke="rgba(63,155,253,1)" stroke-width="1.5" fill-opacity="1" fill="#3f9bfd"></path><g id="SvgjsG1029"><text id="SvgjsText1030" font-family="&quot;Microsoft YaHei&quot;, 微软雅黑, Arial" text-anchor="middle" font-size="15px" width="186px" fill="#ffffff" font-weight="400" align="middle" lineHeight="125%" anchor="middle" family="&quot;Microsoft YaHei&quot;, 微软雅黑, Arial" size="15px" weight="400" font-style="" opacity="1" y="15.125" transform="rotate(0)"><tspan id="SvgjsTspan1031" dy="18.75" x="103"><tspan id="SvgjsTspan1032" style="">应用程序加载器</tspan></tspan><tspan id="SvgjsTspan1033" dy="18.75" x="103"><tspan id="SvgjsTspan1034" style="">App ClassLoader</tspan></tspan></text></g></g><g id="SvgjsG1035" transform="translate(25,402)"><path id="SvgjsPath1036" d="M 0 4Q 0 0 4 0L 202 0Q 206 0 206 4L 206 70Q 206 74 202 74L 4 74Q 0 74 0 70Z" stroke="rgba(63,155,253,1)" stroke-width="1.5" fill-opacity="1" fill="#3f9bfd"></path><g id="SvgjsG1037"><text id="SvgjsText1038" font-family="&quot;Microsoft YaHei&quot;, 微软雅黑, Arial" text-anchor="middle" font-size="15px" width="186px" fill="#ffffff" font-weight="400" align="middle" lineHeight="125%" anchor="middle" family="&quot;Microsoft YaHei&quot;, 微软雅黑, Arial" size="15px" weight="400" font-style="" opacity="1" y="15.125" transform="rotate(0)"><tspan id="SvgjsTspan1039" dy="18.75" x="103"><tspan id="SvgjsTspan1040" style="">自定义加载器</tspan></tspan><tspan id="SvgjsTspan1041" dy="18.75" x="103"><tspan id="SvgjsTspan1042" style="">User ClassLoader</tspan></tspan></text></g></g><g id="SvgjsG1043" transform="translate(283,402)"><path id="SvgjsPath1044" d="M 0 4Q 0 0 4 0L 202 0Q 206 0 206 4L 206 70Q 206 74 202 74L 4 74Q 0 74 0 70Z" stroke="rgba(63,155,253,1)" stroke-width="1.5" fill-opacity="1" fill="#3f9bfd"></path><g id="SvgjsG1045"><text id="SvgjsText1046" font-family="&quot;Microsoft YaHei&quot;, 微软雅黑, Arial" text-anchor="middle" font-size="15px" width="186px" fill="#ffffff" font-weight="400" align="middle" lineHeight="125%" anchor="middle" family="&quot;Microsoft YaHei&quot;, 微软雅黑, Arial" size="15px" weight="400" font-style="" opacity="1" y="15.125" transform="rotate(0)"><tspan id="SvgjsTspan1047" dy="18.75" x="103"><tspan id="SvgjsTspan1048" style="">自定义加载器</tspan></tspan><tspan id="SvgjsTspan1049" dy="18.75" x="103"><tspan id="SvgjsTspan1050" style="">User ClassLoader</tspan></tspan></text></g></g><g id="SvgjsG1051"><path id="SvgjsPath1052" d="M128.66868415106944 401.6603509073933L251.59273705615004 339.2227367333841" stroke="#323232" stroke-width="1.5" fill="none" marker-end="url(#SvgjsMarker1053)"></path></g><g id="SvgjsG1055"><path id="SvgjsPath1056" d="M385.32513941960286 401.67279487011047L256.4294980894297 339.1779384676023" stroke="#323232" stroke-width="1.5" fill="none" marker-end="url(#SvgjsMarker1057)"></path></g><g id="SvgjsG1059"><path id="SvgjsPath1060" d="M254 263.25L254 224.7" stroke="#323232" stroke-width="1.5" fill="none" marker-end="url(#SvgjsMarker1061)"></path></g><g id="SvgjsG1063"><path id="SvgjsPath1064" d="M254 147.25L254 108.69999999999999" stroke="#323232" stroke-width="1.5" fill="none" marker-end="url(#SvgjsMarker1065)"></path></g><g id="SvgjsG1067"><path id="SvgjsPath1068" d="M528 25L528 325.4000015258789L528 325.4000015258789L528 625.8000030517578" stroke-dasharray="1.5,2.25" stroke="#323232" stroke-width="1.5" fill="none"></path></g><g id="SvgjsG1069" transform="translate(693,32)"><path id="SvgjsPath1070" d="M 0 4Q 0 0 4 0L 202 0Q 206 0 206 4L 206 70Q 206 74 202 74L 4 74Q 0 74 0 70Z" stroke="rgba(63,155,253,1)" stroke-width="1.5" fill-opacity="1" fill="#3f9bfd"></path><g id="SvgjsG1071"><text id="SvgjsText1072" font-family="&quot;Microsoft YaHei&quot;, 微软雅黑, Arial" text-anchor="middle" font-size="15px" width="186px" fill="#ffffff" font-weight="400" align="middle" lineHeight="125%" anchor="middle" family="&quot;Microsoft YaHei&quot;, 微软雅黑, Arial" size="15px" weight="400" font-style="" opacity="1" y="15.125" transform="rotate(0)"><tspan id="SvgjsTspan1073" dy="18.75" x="103"><tspan id="SvgjsTspan1074" style="">启动类加载器</tspan></tspan><tspan id="SvgjsTspan1075" dy="18.75" x="103"><tspan id="SvgjsTspan1076" style="">BootStrap ClassLoader</tspan></tspan></text></g></g><g id="SvgjsG1077" transform="translate(693,148)"><path id="SvgjsPath1078" d="M 0 4Q 0 0 4 0L 202 0Q 206 0 206 4L 206 70Q 206 74 202 74L 4 74Q 0 74 0 70Z" stroke="rgba(63,155,253,1)" stroke-width="1.5" fill-opacity="1" fill="#3f9bfd"></path><g id="SvgjsG1079"><text id="SvgjsText1080" font-family="&quot;Microsoft YaHei&quot;, 微软雅黑, Arial" text-anchor="middle" font-size="15px" width="186px" fill="#ffffff" font-weight="400" align="middle" lineHeight="125%" anchor="middle" family="&quot;Microsoft YaHei&quot;, 微软雅黑, Arial" size="15px" weight="400" font-style="" opacity="1" y="15.125" transform="rotate(0)"><tspan id="SvgjsTspan1081" dy="18.75" x="103"><tspan id="SvgjsTspan1082" style="">平台类加载器</tspan></tspan><tspan id="SvgjsTspan1083" dy="18.75" x="103"><tspan id="SvgjsTspan1084" style="">Platform ClassLoader</tspan></tspan></text></g></g><g id="SvgjsG1085" transform="translate(693,264)"><path id="SvgjsPath1086" d="M 0 4Q 0 0 4 0L 202 0Q 206 0 206 4L 206 70Q 206 74 202 74L 4 74Q 0 74 0 70Z" stroke="rgba(63,155,253,1)" stroke-width="1.5" fill-opacity="1" fill="#3f9bfd"></path><g id="SvgjsG1087"><text id="SvgjsText1088" font-family="&quot;Microsoft YaHei&quot;, 微软雅黑, Arial" text-anchor="middle" font-size="15px" width="186px" fill="#ffffff" font-weight="400" align="middle" lineHeight="125%" anchor="middle" family="&quot;Microsoft YaHei&quot;, 微软雅黑, Arial" size="15px" weight="400" font-style="" opacity="1" y="15.125" transform="rotate(0)"><tspan id="SvgjsTspan1089" dy="18.75" x="103"><tspan id="SvgjsTspan1090" style="">应用程序加载器</tspan></tspan><tspan id="SvgjsTspan1091" dy="18.75" x="103"><tspan id="SvgjsTspan1092" style="">App ClassLoader</tspan></tspan></text></g></g><g id="SvgjsG1093" transform="translate(567,402)"><path id="SvgjsPath1094" d="M 0 4Q 0 0 4 0L 202 0Q 206 0 206 4L 206 70Q 206 74 202 74L 4 74Q 0 74 0 70Z" stroke="rgba(63,155,253,1)" stroke-width="1.5" fill-opacity="1" fill="#3f9bfd"></path><g id="SvgjsG1095"><text id="SvgjsText1096" font-family="&quot;Microsoft YaHei&quot;, 微软雅黑, Arial" text-anchor="middle" font-size="15px" width="186px" fill="#ffffff" font-weight="400" align="middle" lineHeight="125%" anchor="middle" family="&quot;Microsoft YaHei&quot;, 微软雅黑, Arial" size="15px" weight="400" font-style="" opacity="1" y="15.125" transform="rotate(0)"><tspan id="SvgjsTspan1097" dy="18.75" x="103"><tspan id="SvgjsTspan1098" style="">自定义加载器</tspan></tspan><tspan id="SvgjsTspan1099" dy="18.75" x="103"><tspan id="SvgjsTspan1100" style="">User ClassLoader</tspan></tspan></text></g></g><g id="SvgjsG1101" transform="translate(825,402)"><path id="SvgjsPath1102" d="M 0 4Q 0 0 4 0L 202 0Q 206 0 206 4L 206 70Q 206 74 202 74L 4 74Q 0 74 0 70Z" stroke="rgba(63,155,253,1)" stroke-width="1.5" fill-opacity="1" fill="#3f9bfd"></path><g id="SvgjsG1103"><text id="SvgjsText1104" font-family="&quot;Microsoft YaHei&quot;, 微软雅黑, Arial" text-anchor="middle" font-size="15px" width="186px" fill="#ffffff" font-weight="400" align="middle" lineHeight="125%" anchor="middle" family="&quot;Microsoft YaHei&quot;, 微软雅黑, Arial" size="15px" weight="400" font-style="" opacity="1" y="15.125" transform="rotate(0)"><tspan id="SvgjsTspan1105" dy="18.75" x="103"><tspan id="SvgjsTspan1106" style="">自定义加载器</tspan></tspan><tspan id="SvgjsTspan1107" dy="18.75" x="103"><tspan id="SvgjsTspan1108" style="">User ClassLoader</tspan></tspan></text></g></g><g id="SvgjsG1109"><path id="SvgjsPath1110" d="M670.6686841510694 401.6603509073933L793.59273705615 339.2227367333841" stroke="#323232" stroke-width="1.5" fill="none" marker-end="url(#SvgjsMarker1111)"></path></g><g id="SvgjsG1113"><path id="SvgjsPath1114" d="M927.3251394196028 401.67279487011047L798.4294980894298 339.1779384676023" stroke="#323232" stroke-width="1.5" fill="none" marker-end="url(#SvgjsMarker1115)"></path></g><g id="SvgjsG1117"><path id="SvgjsPath1118" d="M796 263.25L796 224.7" stroke="#323232" stroke-width="1.5" fill="none" marker-end="url(#SvgjsMarker1119)"></path></g><g id="SvgjsG1121"><path id="SvgjsPath1122" d="M796 147.25L796 108.69999999999999" stroke="#323232" stroke-width="1.5" fill="none" marker-end="url(#SvgjsMarker1123)"></path></g><g id="SvgjsG1125" transform="translate(66,492)"><path id="SvgjsPath1126" d="M 0 0L 308 0L 308 55.80000305175781L 0 55.80000305175781Z" stroke="none" fill="none"></path><g id="SvgjsG1127"><text id="SvgjsText1128" font-family="&quot;Microsoft YaHei&quot;, 微软雅黑, Arial" text-anchor="start" font-size="13px" width="308px" fill="#323232" font-weight="700" align="middle" lineHeight="125%" anchor="start" family="&quot;Microsoft YaHei&quot;, 微软雅黑, Arial" size="13px" weight="700" font-style="" opacity="1" y="8.775001525878906" transform="rotate(0)"><tspan id="SvgjsTspan1129" dy="16.25" x="0"><tspan id="SvgjsTspan1130" style="">只有当父加载器反馈自己无法完成这个加载请求时，</tspan></tspan><tspan id="SvgjsTspan1131" dy="16.25" x="0"><tspan id="SvgjsTspan1132" style="">子加载器才会尝试自己去完成加载</tspan></tspan></text></g></g><g id="SvgjsG1133" transform="translate(567,495.4000015258789)"><path id="SvgjsPath1134" d="M 0 0L 469.5 0L 469.5 49L 0 49Z" stroke="none" fill="none"></path><g id="SvgjsG1135"><text id="SvgjsText1136" font-family="&quot;Microsoft YaHei&quot;, 微软雅黑, Arial" text-anchor="start" font-size="13px" width="470px" fill="#323232" font-weight="700" align="middle" lineHeight="125%" anchor="start" family="&quot;Microsoft YaHei&quot;, 微软雅黑, Arial" size="13px" weight="700" font-style="" opacity="1" y="5.375" transform="rotate(0)"><tspan id="SvgjsTspan1137" dy="16.25" x="0"><tspan id="SvgjsTspan1138" style="">在委派给父加载器加载前，先判断该类是否能够归属到某一个系统模块中，</tspan></tspan><tspan id="SvgjsTspan1139" dy="16.25" x="0"><tspan id="SvgjsTspan1140" style="">如果可以找到这样的归属关系，就要优先委派给负责那个模块的加载器完成加载</tspan></tspan></text></g></g><g id="SvgjsG1141" transform="translate(113.5,582.8000030517578)"><path id="SvgjsPath1142" d="M 0 0L 281 0L 281 33L 0 33Z" stroke="rgba(230,118,165,1)" stroke-width="1.5" fill-opacity="1" fill="#e676a5"></path><g id="SvgjsG1143"><text id="SvgjsText1144" font-family="&quot;Microsoft YaHei&quot;, 微软雅黑, Arial" text-anchor="middle" font-size="15px" width="261px" fill="#ffffff" font-weight="700" align="middle" lineHeight="125%" anchor="middle" family="&quot;Microsoft YaHei&quot;, 微软雅黑, Arial" size="15px" weight="700" font-style="" opacity="1" y="4.125" transform="rotate(0)"><tspan id="SvgjsTspan1145" dy="18.75" x="140.5"><tspan id="SvgjsTspan1146" style="">JDK 9 前的双亲委派模式</tspan></tspan></text></g></g><g id="SvgjsG1147" transform="translate(661.25,582.8000030517578)"><path id="SvgjsPath1148" d="M 0 0L 281 0L 281 33L 0 33Z" stroke="rgba(244,185,56,1)" stroke-width="1.5" fill-opacity="1" fill="#f4b938"></path><g id="SvgjsG1149"><text id="SvgjsText1150" font-family="&quot;Microsoft YaHei&quot;, 微软雅黑, Arial" text-anchor="middle" font-size="15px" width="261px" fill="#ffffff" font-weight="700" align="middle" lineHeight="125%" anchor="middle" family="&quot;Microsoft YaHei&quot;, 微软雅黑, Arial" size="15px" weight="700" font-style="" opacity="1" y="4.125" transform="rotate(0)"><tspan id="SvgjsTspan1151" dy="18.75" x="140.5"><tspan id="SvgjsTspan1152" style="">JDK 9 的双亲委派模式</tspan></tspan></text></g></g><g id="SvgjsG1153"></g></svg>