<svg id="SvgjsSvg1006" width="1275" height="921.0000171661377" xmlns="http://www.w3.org/2000/svg" version="1.1" xmlns:xlink="http://www.w3.org/1999/xlink" xmlns:svgjs="http://svgjs.com/svgjs"><defs id="SvgjsDefs1007"><pattern patternUnits="userSpaceOnUse" id="pattern_mark_0" width="300" height="300"><text x="150" y="100" fill="rgba(229,229,229,0.8)" font-size="18" transform="rotate(-45, 150, 150)" style="dominant-baseline: middle; text-anchor: middle;"></text></pattern><pattern patternUnits="userSpaceOnUse" id="pattern_mark_1" width="300" height="300"><text x="150" y="200" fill="rgba(229,229,229,0.8)" font-size="18" transform="rotate(-45, 150, 150)" style="dominant-baseline: middle; text-anchor: middle;"></text></pattern><marker id="SvgjsMarker1061" markerWidth="13" markerHeight="9" refX="9.5" refY="4.5" viewBox="0 0 13 9" orient="auto" markerUnits="userSpaceOnUse" stroke-dasharray="0,0"><path id="SvgjsPath1062" d="M0,0 L13,4.5 L0,9 L0,0" fill="#323232" stroke="#323232" stroke-width="1"></path></marker><marker id="SvgjsMarker1071" markerWidth="13" markerHeight="9" refX="9.5" refY="4.5" viewBox="0 0 13 9" orient="auto" markerUnits="userSpaceOnUse" stroke-dasharray="0,0"><path id="SvgjsPath1072" d="M0,0 L13,4.5 L0,9 L0,0" fill="#323232" stroke="#323232" stroke-width="1"></path></marker><marker id="SvgjsMarker1087" markerWidth="13" markerHeight="9" refX="9.5" refY="4.5" viewBox="0 0 13 9" orient="auto" markerUnits="userSpaceOnUse" stroke-dasharray="0,0"><path id="SvgjsPath1088" d="M0,0 L13,4.5 L0,9 L0,0" fill="#323232" stroke="#323232" stroke-width="1"></path></marker><marker id="SvgjsMarker1111" markerWidth="13" markerHeight="9" refX="9.5" refY="4.5" viewBox="0 0 13 9" orient="auto" markerUnits="userSpaceOnUse" stroke-dasharray="0,0"><path id="SvgjsPath1112" d="M0,0 L13,4.5 L0,9 L0,0" fill="#323232" stroke="#323232" stroke-width="1"></path></marker><marker id="SvgjsMarker1115" markerWidth="13" markerHeight="9" refX="9.5" refY="4.5" viewBox="0 0 13 9" orient="auto" markerUnits="userSpaceOnUse" stroke-dasharray="0,0"><path id="SvgjsPath1116" d="M0,0 L13,4.5 L0,9 L0,0" fill="#323232" stroke="#323232" stroke-width="1"></path></marker><marker id="SvgjsMarker1177" markerWidth="13" markerHeight="9" refX="9.5" refY="4.5" viewBox="0 0 13 9" orient="auto" markerUnits="userSpaceOnUse" stroke-dasharray="0,0"><path id="SvgjsPath1178" d="M0,0 L13,4.5 L0,9 L0,0" fill="#323232" stroke="#323232" stroke-width="1"></path></marker><marker id="SvgjsMarker1181" markerWidth="13" markerHeight="9" refX="9.5" refY="4.5" viewBox="0 0 13 9" orient="auto" markerUnits="userSpaceOnUse" stroke-dasharray="0,0"><path id="SvgjsPath1182" d="M0,0 L13,4.5 L0,9 L0,0" fill="#323232" stroke="#323232" stroke-width="1"></path></marker><marker id="SvgjsMarker1185" markerWidth="13" markerHeight="9" refX="9.5" refY="4.5" viewBox="0 0 13 9" orient="auto" markerUnits="userSpaceOnUse" stroke-dasharray="0,0"><path id="SvgjsPath1186" d="M0,0 L13,4.5 L0,9 L0,0" fill="#323232" stroke="#323232" stroke-width="1"></path></marker><marker id="SvgjsMarker1189" markerWidth="13" markerHeight="9" refX="9.5" refY="4.5" viewBox="0 0 13 9" orient="auto" markerUnits="userSpaceOnUse" stroke-dasharray="0,0"><path id="SvgjsPath1190" d="M0,0 L13,4.5 L0,9 L0,0" fill="#323232" stroke="#323232" stroke-width="1"></path></marker><marker id="SvgjsMarker1193" markerWidth="13" markerHeight="9" refX="9.5" refY="4.5" viewBox="0 0 13 9" orient="auto" markerUnits="userSpaceOnUse" stroke-dasharray="0,0"><path id="SvgjsPath1194" d="M0,0 L13,4.5 L0,9 L0,0" fill="#323232" stroke="#323232" stroke-width="1"></path></marker></defs><rect id="svgbackgroundid" width="1275" height="921.0000171661377" fill="transparent"></rect><rect id="SvgjsRect1009" width="1275" height="921.0000171661377" fill="url(#pattern_mark_0)"></rect><rect id="SvgjsRect1010" width="1275" height="921.0000171661377" fill="url(#pattern_mark_1)"></rect><g id="SvgjsG1011" transform="translate(25,196.00003051757812)"><path id="SvgjsPath1012" d="M 0 0L 269 0L 269 38L 0 38Z" stroke="rgba(162,60,115,1)" stroke-width="1.5" fill-opacity="1" fill="#efeceb"></path><g id="SvgjsG1013"><text id="SvgjsText1014" font-family="&quot;Microsoft YaHei&quot;, 微软雅黑, Arial" text-anchor="middle" font-size="15px" width="249px" fill="#323232" font-weight="400" align="middle" lineHeight="125%" anchor="middle" family="&quot;Microsoft YaHei&quot;, 微软雅黑, Arial" size="15px" weight="400" font-style="" opacity="1" y="6.625" transform="rotate(0)"><tspan id="SvgjsTspan1015" dy="18.75" x="134.5"><tspan id="SvgjsTspan1016" style="">2020-11-20T17:19:43.794-0800:</tspan></tspan></text></g></g><g id="SvgjsG1017" transform="translate(309,196.00003051757812)"><path id="SvgjsPath1018" d="M 0 0L 71 0L 71 38L 0 38Z" stroke="rgba(162,60,115,1)" stroke-width="1.5" fill-opacity="1" fill="#e7ebed"></path><g id="SvgjsG1019"><text id="SvgjsText1020" font-family="&quot;Microsoft YaHei&quot;, 微软雅黑, Arial" text-anchor="middle" font-size="15px" width="51px" fill="#323232" font-weight="400" align="middle" lineHeight="125%" anchor="middle" family="&quot;Microsoft YaHei&quot;, 微软雅黑, Arial" size="15px" weight="400" font-style="" opacity="1" y="6.625" transform="rotate(0)"><tspan id="SvgjsTspan1021" dy="18.75" x="35.5"><tspan id="SvgjsTspan1022" style="">1.351:</tspan></tspan></text></g></g><g id="SvgjsG1023" transform="translate(395,196.00003051757812)"><path id="SvgjsPath1024" d="M 0 0L 324 0L 324 38L 0 38Z" stroke="rgba(162,60,115,1)" stroke-width="1.5" fill-opacity="1" fill="#fadcdb"></path><g id="SvgjsG1025"><text id="SvgjsText1026" font-family="&quot;Microsoft YaHei&quot;, 微软雅黑, Arial" text-anchor="middle" font-size="15px" width="304px" fill="#323232" font-weight="400" align="middle" lineHeight="125%" anchor="middle" family="&quot;Microsoft YaHei&quot;, 微软雅黑, Arial" size="15px" weight="400" font-style="" opacity="1" y="6.625" transform="rotate(0)"><tspan id="SvgjsTspan1027" dy="18.75" x="162"><tspan id="SvgjsTspan1028" style="">[FULL GC (METADATA GC THRESHOLD)</tspan></tspan></text></g></g><g id="SvgjsG1029" transform="translate(734,196.00003051757812)"><path id="SvgjsPath1030" d="M 0 0L 324 0L 324 38L 0 38Z" stroke="rgba(162,60,115,1)" stroke-width="1.5" fill-opacity="1" fill="#fbeada"></path><g id="SvgjsG1031"><text id="SvgjsText1032" font-family="&quot;Microsoft YaHei&quot;, 微软雅黑, Arial" text-anchor="middle" font-size="15px" width="304px" fill="#323232" font-weight="400" align="middle" lineHeight="125%" anchor="middle" family="&quot;Microsoft YaHei&quot;, 微软雅黑, Arial" size="15px" weight="400" font-style="" opacity="1" y="6.625" transform="rotate(0)"><tspan id="SvgjsTspan1033" dy="18.75" x="162"><tspan id="SvgjsTspan1034" style="">[PSYOUNGGEN: 10082K-&gt;0K(89600K)]</tspan></tspan></text></g></g><g id="SvgjsG1035" transform="translate(27,717.0000305175781)"><path id="SvgjsPath1036" d="M 0 0L 324 0L 324 38L 0 38Z" stroke="rgba(162,60,115,1)" stroke-width="1.5" fill-opacity="1" fill="#e5f6da"></path><g id="SvgjsG1037"><text id="SvgjsText1038" font-family="&quot;Microsoft YaHei&quot;, 微软雅黑, Arial" text-anchor="middle" font-size="15px" width="304px" fill="#323232" font-weight="400" align="middle" lineHeight="125%" anchor="middle" family="&quot;Microsoft YaHei&quot;, 微软雅黑, Arial" size="15px" weight="400" font-style="" opacity="1" y="6.625" transform="rotate(0)"><tspan id="SvgjsTspan1039" dy="18.75" x="162"><tspan id="SvgjsTspan1040" style="">[PAROLDGEN:32K-&gt;9638K(204800K)]</tspan></tspan></text></g></g><g id="SvgjsG1041" transform="translate(366,717.0000305175781)"><path id="SvgjsPath1042" d="M 0 0L 213 0L 213 38L 0 38Z" stroke="rgba(162,60,115,1)" stroke-width="1.5" fill-opacity="1" fill="#dbf5f5"></path><g id="SvgjsG1043"><text id="SvgjsText1044" font-family="&quot;Microsoft YaHei&quot;, 微软雅黑, Arial" text-anchor="middle" font-size="15px" width="193px" fill="#323232" font-weight="400" align="middle" lineHeight="125%" anchor="middle" family="&quot;Microsoft YaHei&quot;, 微软雅黑, Arial" size="15px" weight="400" font-style="" opacity="1" y="6.625" transform="rotate(0)"><tspan id="SvgjsTspan1045" dy="18.75" x="106.5"><tspan id="SvgjsTspan1046" style="">10114K-&gt;9638K(294400K)</tspan></tspan></text></g></g><g id="SvgjsG1047" transform="translate(594,717.0000305175781)"><path id="SvgjsPath1048" d="M 0 0L 349 0L 349 38L 0 38Z" stroke="rgba(162,60,115,1)" stroke-width="1.5" fill-opacity="1" fill="#d2d6f9"></path><g id="SvgjsG1049"><text id="SvgjsText1050" font-family="&quot;Microsoft YaHei&quot;, 微软雅黑, Arial" text-anchor="middle" font-size="15px" width="329px" fill="#323232" font-weight="400" align="middle" lineHeight="125%" anchor="middle" family="&quot;Microsoft YaHei&quot;, 微软雅黑, Arial" size="15px" weight="400" font-style="" opacity="1" y="6.625" transform="rotate(0)"><tspan id="SvgjsTspan1051" dy="18.75" x="174.5"><tspan id="SvgjsTspan1052" style="">[METASPACE: 20158K-&gt;20156K(1067008K)]</tspan></tspan></text></g></g><g id="SvgjsG1053" transform="translate(73,92)"><path id="SvgjsPath1054" d="M 0 4Q 0 0 4 0L 169 0Q 173 0 173 4L 173 36Q 173 40 169 40L 4 40Q 0 40 0 36Z" stroke="rgba(239,236,235,1)" stroke-width="1.5" fill-opacity="1" fill="#efeceb"></path><g id="SvgjsG1055"><text id="SvgjsText1056" font-family="&quot;Microsoft YaHei&quot;, 微软雅黑, Arial" text-anchor="middle" font-size="15px" width="153px" fill="#323232" font-weight="400" align="middle" lineHeight="125%" anchor="middle" family="&quot;Microsoft YaHei&quot;, 微软雅黑, Arial" size="15px" weight="400" font-style="" opacity="1" y="7.625" transform="rotate(0)"><tspan id="SvgjsTspan1057" dy="18.75" x="86.5"><tspan id="SvgjsTspan1058" style="">日志打印时间</tspan></tspan></text></g></g><g id="SvgjsG1059"><path id="SvgjsPath1060" d="M159.5 132.75L159.5 164.00001525878906L159.5 164.00001525878906L159.5 193.30003051757814" stroke="#323232" stroke-width="1.5" fill="none" marker-end="url(#SvgjsMarker1061)"></path></g><g id="SvgjsG1063" transform="translate(187.5,295.00001525878906)"><path id="SvgjsPath1064" d="M 0 4Q 0 0 4 0L 310 0Q 314 0 314 4L 314 38Q 314 42 310 42L 4 42Q 0 42 0 38Z" stroke="rgba(231,235,237,1)" stroke-width="1.5" fill-opacity="1" fill="#e7ebed"></path><g id="SvgjsG1065"><text id="SvgjsText1066" font-family="&quot;Microsoft YaHei&quot;, 微软雅黑, Arial" text-anchor="middle" font-size="15px" width="294px" fill="#323232" font-weight="400" align="middle" lineHeight="125%" anchor="middle" family="&quot;Microsoft YaHei&quot;, 微软雅黑, Arial" size="15px" weight="400" font-style="" opacity="1" y="8.625" transform="rotate(0)"><tspan id="SvgjsTspan1067" dy="18.75" x="157"><tspan id="SvgjsTspan1068" style="">gc发生时，Java虚拟机启动以来经过的秒数</tspan></tspan></text></g></g><g id="SvgjsG1069"><path id="SvgjsPath1070" d="M344.5 294.25001525878906L344.5 264.5000228881836L344.5 264.5000228881836L344.5 236.7000305175781" stroke="#323232" stroke-width="1.5" fill="none" marker-end="url(#SvgjsMarker1071)"></path></g><g id="SvgjsG1073" transform="translate(323,25)"><path id="SvgjsPath1074" d="M 0 4Q 0 0 4 0L 464 0Q 468 0 468 4L 468 103Q 468 107 464 107L 4 107Q 0 107 0 103Z" stroke="rgba(250,220,219,1)" stroke-width="1.5" fill-opacity="1" fill="#fadcdb"></path><g id="SvgjsG1075"><text id="SvgjsText1076" font-family="&quot;Microsoft YaHei&quot;, 微软雅黑, Arial" text-anchor="start" font-size="15px" width="448px" fill="#323232" font-weight="400" align="middle" lineHeight="125%" anchor="start" family="&quot;Microsoft YaHei&quot;, 微软雅黑, Arial" size="15px" weight="400" font-style="" opacity="1" y="13.125" transform="rotate(0)"><tspan id="SvgjsTspan1077" dy="18.75" x="10"><tspan id="SvgjsTspan1078" style="">括号中是 GC 发生的原因，原因：Metaspace 区不够用了。除此之</tspan></tspan><tspan id="SvgjsTspan1079" dy="18.75" x="10"><tspan id="SvgjsTspan1080" style="">外，还有另外两种情况会引起 Full GC，如下：</tspan></tspan><tspan id="SvgjsTspan1081" dy="18.75" x="10"><tspan id="SvgjsTspan1082" style="">1、Full GC(FErgonomics)  原因：JVM 自适应调整导致的 GC</tspan></tspan><tspan id="SvgjsTspan1083" dy="18.75" x="10"><tspan id="SvgjsTspan1084" style="">2、Full GC（System） 原因：调用了 System.gc() 方法</tspan></tspan></text></g></g><g id="SvgjsG1085"><path id="SvgjsPath1086" d="M557 132.75L557 164.00001525878906L557 164.00001525878906L557 193.30003051757814" stroke="#323232" stroke-width="1.5" fill="none" marker-end="url(#SvgjsMarker1087)"></path></g><g id="SvgjsG1089" transform="translate(602.5,295.00001525878906)"><path id="SvgjsPath1090" d="M 0 4Q 0 0 4 0L 252.5 0Q 256.5 0 256.5 4L 256.5 77Q 256.5 81 252.5 81L 4 81Q 0 81 0 77Z" stroke="rgba(251,234,218,1)" stroke-width="1.5" fill-opacity="1" fill="#fbeada"></path><g id="SvgjsG1091"><text id="SvgjsText1092" font-family="&quot;Microsoft YaHei&quot;, 微软雅黑, Arial" text-anchor="start" font-size="15px" width="237px" fill="#323232" font-weight="400" align="middle" lineHeight="125%" anchor="start" family="&quot;Microsoft YaHei&quot;, 微软雅黑, Arial" size="15px" weight="400" font-style="" opacity="1" y="9.625" transform="rotate(0)"><tspan id="SvgjsTspan1093" dy="18.75" x="10"><tspan id="SvgjsTspan1094" style="">PSYoungGen：表示 GC 发生的区</tspan></tspan><tspan id="SvgjsTspan1095" dy="18.75" x="10"><tspan id="SvgjsTspan1096" style="">域，区域名称与使用的 GC 收集器</tspan></tspan><tspan id="SvgjsTspan1097" dy="18.75" x="10"><tspan id="SvgjsTspan1098" style="">是密切相关的</tspan></tspan></text></g></g><g id="SvgjsG1099" transform="translate(872.5,295.00001525878906)"><path id="SvgjsPath1100" d="M 0 4Q 0 0 4 0L 252.5 0Q 256.5 0 256.5 4L 256.5 77Q 256.5 81 252.5 81L 4 81Q 0 81 0 77Z" stroke="rgba(251,234,218,1)" stroke-width="1.5" fill-opacity="1" fill="#fbeada"></path><g id="SvgjsG1101"><text id="SvgjsText1102" font-family="&quot;Microsoft YaHei&quot;, 微软雅黑, Arial" text-anchor="start" font-size="15px" width="237px" fill="#323232" font-weight="400" align="middle" lineHeight="125%" anchor="start" family="&quot;Microsoft YaHei&quot;, 微软雅黑, Arial" size="15px" weight="400" font-style="" opacity="1" y="9.625" transform="rotate(0)"><tspan id="SvgjsTspan1103" dy="18.75" x="10"><tspan id="SvgjsTspan1104" style="">10082K-&gt;0K(89600K)：GC 前该</tspan></tspan><tspan id="SvgjsTspan1105" dy="18.75" x="10"><tspan id="SvgjsTspan1106" style="">内存区域已使用容量 -&gt; GC 该区域</tspan></tspan><tspan id="SvgjsTspan1107" dy="18.75" x="10"><tspan id="SvgjsTspan1108" style="">容量(该区域总容量)</tspan></tspan></text></g></g><g id="SvgjsG1109"><path id="SvgjsPath1110" d="M731.3017407936986 294.4919974475178L795.0137331426849 235.82889463815457" stroke="#323232" stroke-width="1.5" fill="none" marker-end="url(#SvgjsMarker1111)"></path></g><g id="SvgjsG1113"><path id="SvgjsPath1114" d="M1000.3195654327687 294.3858279230906L959.5495644420328 236.2110896673036" stroke="#323232" stroke-width="1.5" fill="none" marker-end="url(#SvgjsMarker1115)"></path></g><g id="SvgjsG1117" transform="translate(395,442.0000305175781)"><path id="SvgjsPath1118" d="M 11 0L 341 0C 355.6666666666667 0 355.6666666666667 33 341 33L 11 33C -3.6666666666666665 33 -3.6666666666666665 0 11 0Z" stroke="rgba(127,127,127,1)" stroke-width="1.5" fill-opacity="1" fill="#f2f2f2"></path><g id="SvgjsG1119"><text id="SvgjsText1120" font-family="&quot;Microsoft YaHei&quot;, 微软雅黑, Arial" text-anchor="middle" font-size="13px" width="332px" fill="#262626" font-weight="400" align="middle" lineHeight="125%" anchor="middle" family="&quot;Microsoft YaHei&quot;, 微软雅黑, Arial" size="13px" weight="400" font-style="" opacity="1" y="5.875" transform="rotate(0)"><tspan id="SvgjsTspan1121" dy="16.25" x="176"><tspan id="SvgjsTspan1122" style="">Serial收集器：Default New Generation 显示Defnew</tspan></tspan></text></g></g><g id="SvgjsG1123" transform="translate(395,475.0000305175781)"><path id="SvgjsPath1124" d="M 11 0L 341 0C 355.6666666666667 0 355.6666666666667 33 341 33L 11 33C -3.6666666666666665 33 -3.6666666666666665 0 11 0Z" stroke="rgba(127,127,127,1)" stroke-width="1.5" fill-opacity="1" fill="#f2f2f2"></path><g id="SvgjsG1125"><text id="SvgjsText1126" font-family="&quot;Microsoft YaHei&quot;, 微软雅黑, Arial" text-anchor="middle" font-size="13px" width="332px" fill="#262626" font-weight="400" align="middle" lineHeight="125%" anchor="middle" family="&quot;Microsoft YaHei&quot;, 微软雅黑, Arial" size="13px" weight="400" font-style="" opacity="1" y="5.875" transform="rotate(0)"><tspan id="SvgjsTspan1127" dy="16.25" x="176"><tspan id="SvgjsTspan1128" style="">ParNew收集器：ParNew</tspan></tspan></text></g></g><g id="SvgjsG1129" transform="translate(395,507.0000305175781)"><path id="SvgjsPath1130" d="M 11 0L 341 0C 355.6666666666667 0 355.6666666666667 33 341 33L 11 33C -3.6666666666666665 33 -3.6666666666666665 0 11 0Z" stroke="rgba(127,127,127,1)" stroke-width="1.5" fill-opacity="1" fill="#f2f2f2"></path><g id="SvgjsG1131"><text id="SvgjsText1132" font-family="&quot;Microsoft YaHei&quot;, 微软雅黑, Arial" text-anchor="middle" font-size="13px" width="332px" fill="#262626" font-weight="400" align="middle" lineHeight="125%" anchor="middle" family="&quot;Microsoft YaHei&quot;, 微软雅黑, Arial" size="13px" weight="400" font-style="" opacity="1" y="5.875" transform="rotate(0)"><tspan id="SvgjsTspan1133" dy="16.25" x="176"><tspan id="SvgjsTspan1134" style="">Parallel Scanvenge收集器：PSYoung</tspan></tspan></text></g></g><g id="SvgjsG1135" transform="translate(395,539.0000305175781)"><path id="SvgjsPath1136" d="M 11 0L 341 0C 355.6666666666667 0 355.6666666666667 33 341 33L 11 33C -3.6666666666666665 33 -3.6666666666666665 0 11 0Z" stroke="rgba(127,127,127,1)" stroke-width="1.5" fill-opacity="1" fill="#f2f2f2"></path><g id="SvgjsG1137"><text id="SvgjsText1138" font-family="&quot;Microsoft YaHei&quot;, 微软雅黑, Arial" text-anchor="middle" font-size="13px" width="332px" fill="#262626" font-weight="400" align="middle" lineHeight="125%" anchor="middle" family="&quot;Microsoft YaHei&quot;, 微软雅黑, Arial" size="13px" weight="400" font-style="" opacity="1" y="5.875" transform="rotate(0)"><tspan id="SvgjsTspan1139" dy="16.25" x="176"><tspan id="SvgjsTspan1140" style="">老年代和新生代同理，也是和收集器名称相关</tspan></tspan></text></g></g><g id="SvgjsG1141" transform="translate(778,442.0000305175781)"><path id="SvgjsPath1142" d="M 11 0L 461 0C 475.6666666666667 0 475.6666666666667 33 461 33L 11 33C -3.6666666666666665 33 -3.6666666666666665 0 11 0Z" stroke="rgba(127,127,127,1)" stroke-width="1.5" fill-opacity="1" fill="#f2f2f2"></path><g id="SvgjsG1143"><text id="SvgjsText1144" font-family="&quot;Microsoft YaHei&quot;, 微软雅黑, Arial" text-anchor="middle" font-size="13px" width="452px" fill="#262626" font-weight="400" align="middle" lineHeight="125%" anchor="middle" family="&quot;Microsoft YaHei&quot;, 微软雅黑, Arial" size="13px" weight="400" font-style="" opacity="1" y="5.875" transform="rotate(0)"><tspan id="SvgjsTspan1145" dy="16.25" x="236"><tspan id="SvgjsTspan1146" style="">如果是新生代，总容量则会显示整个新生代内存的9/10，即eden+from/to区</tspan></tspan></text></g></g><g id="SvgjsG1147" transform="translate(778,475.0000305175781)"><path id="SvgjsPath1148" d="M 11 0L 461 0C 475.6666666666667 0 475.6666666666667 33 461 33L 11 33C -3.6666666666666665 33 -3.6666666666666665 0 11 0Z" stroke="rgba(127,127,127,1)" stroke-width="1.5" fill-opacity="1" fill="#f2f2f2"></path><g id="SvgjsG1149"><text id="SvgjsText1150" font-family="&quot;Microsoft YaHei&quot;, 微软雅黑, Arial" text-anchor="middle" font-size="13px" width="452px" fill="#262626" font-weight="400" align="middle" lineHeight="125%" anchor="middle" family="&quot;Microsoft YaHei&quot;, 微软雅黑, Arial" size="13px" weight="400" font-style="" opacity="1" y="5.875" transform="rotate(0)"><tspan id="SvgjsTspan1151" dy="16.25" x="236"><tspan id="SvgjsTspan1152" style="">如果是老年代，总容量则是全身内存大小，无变化</tspan></tspan></text></g></g><g id="SvgjsG1153" transform="translate(27,623.5000305175781)"><path id="SvgjsPath1154" d="M 0 4Q 0 0 4 0L 435 0Q 439 0 439 4L 439 38Q 439 42 435 42L 4 42Q 0 42 0 38Z" stroke="rgba(229,246,218,1)" stroke-width="1.5" fill-opacity="1" fill="#e5f6da"></path><g id="SvgjsG1155"><text id="SvgjsText1156" font-family="&quot;Microsoft YaHei&quot;, 微软雅黑, Arial" text-anchor="middle" font-size="15px" width="419px" fill="#323232" font-weight="400" align="middle" lineHeight="125%" anchor="middle" family="&quot;Microsoft YaHei&quot;, 微软雅黑, Arial" size="15px" weight="400" font-style="" opacity="1" y="8.625" transform="rotate(0)"><tspan id="SvgjsTspan1157" dy="18.75" x="219.5"><tspan id="SvgjsTspan1158" style="">老年代区域没有发生 GC，因此本次 GC 是 metaspace 引起的</tspan></tspan></text></g></g><g id="SvgjsG1159" transform="translate(192,813.0000305175781)"><path id="SvgjsPath1160" d="M 0 4Q 0 0 4 0L 557 0Q 561 0 561 4L 561 78.99998664855957Q 561 82.99998664855957 557 82.99998664855957L 4 82.99998664855957Q 0 82.99998664855957 0 78.99998664855957Z" stroke="rgba(219,245,245,1)" stroke-width="1.5" fill-opacity="1" fill="#dbf5f5"></path><g id="SvgjsG1161"><text id="SvgjsText1162" font-family="&quot;Microsoft YaHei&quot;, 微软雅黑, Arial" text-anchor="start" font-size="15px" width="541px" fill="#323232" font-weight="400" align="middle" lineHeight="125%" anchor="start" family="&quot;Microsoft YaHei&quot;, 微软雅黑, Arial" size="15px" weight="400" font-style="" opacity="1" y="10.624993324279785" transform="rotate(0)"><tspan id="SvgjsTspan1163" dy="18.75" x="10"><tspan id="SvgjsTspan1164" style="">在显示完区域容量 GC 的情况之后，会接着显示整个堆内存区域的 GC 情况：GC </tspan></tspan><tspan id="SvgjsTspan1165" dy="18.75" x="10"><tspan id="SvgjsTspan1166" style="">前堆内存已使用容量 -&gt; GC 后堆内存容量（堆内存总容量），并且堆内存总容量 </tspan></tspan><tspan id="SvgjsTspan1167" dy="18.75" x="10"><tspan id="SvgjsTspan1168" style="">= 9/10 新生代 + 老年代，然后堆内存总容量肯定小于初始化的内存大小</tspan></tspan></text></g></g><g id="SvgjsG1169" transform="translate(649.25,623.5000305175781)"><path id="SvgjsPath1170" d="M 0 4Q 0 0 4 0L 234.5 0Q 238.5 0 238.5 4L 238.5 38Q 238.5 42 234.5 42L 4 42Q 0 42 0 38Z" stroke="rgba(210,214,249,1)" stroke-width="1.5" fill-opacity="1" fill="#d2d6f9"></path><g id="SvgjsG1171"><text id="SvgjsText1172" font-family="&quot;Microsoft YaHei&quot;, 微软雅黑, Arial" text-anchor="middle" font-size="15px" width="219px" fill="#323232" font-weight="400" align="middle" lineHeight="125%" anchor="middle" family="&quot;Microsoft YaHei&quot;, 微软雅黑, Arial" size="15px" weight="400" font-style="" opacity="1" y="8.625" transform="rotate(0)"><tspan id="SvgjsTspan1173" dy="18.75" x="119.5"><tspan id="SvgjsTspan1174" style="">metaspace GC 回收 2K 空间</tspan></tspan></text></g></g><g id="SvgjsG1175"><path id="SvgjsPath1176" d="M189 665.2500476837158L189 690.750039100647L189 690.750039100647L189 714.3000305175781" stroke="#323232" stroke-width="1.5" fill="none" marker-end="url(#SvgjsMarker1177)"></path></g><g id="SvgjsG1179"><path id="SvgjsPath1180" d="M768.5 666.2500305175781L768.5 691.2500305175781L768.5 691.2500305175781L768.5 714.3000305175781" stroke="#323232" stroke-width="1.5" fill="none" marker-end="url(#SvgjsMarker1181)"></path></g><g id="SvgjsG1183"><path id="SvgjsPath1184" d="M472.5 812.2500305175781L472.5 784.0000305175781L472.5 784.0000305175781L472.5 757.7000305175782" stroke="#323232" stroke-width="1.5" fill="none" marker-end="url(#SvgjsMarker1185)"></path></g><g id="SvgjsG1187"><path id="SvgjsPath1188" d="M730.0568289186538 376.28639586564856L573.4954158928466 440.9690603328839" stroke="#323232" stroke-width="1.5" fill="none" marker-end="url(#SvgjsMarker1189)"></path></g><g id="SvgjsG1191"><path id="SvgjsPath1192" d="M1000.8976226706932 376.7353434488494L1013.4685583855041 439.352849033361" stroke="#323232" stroke-width="1.5" fill="none" marker-end="url(#SvgjsMarker1193)"></path></g><g id="SvgjsG1195"></g></svg>