<svg id="SvgjsSvg1006" width="1458.4073728256226" height="784" xmlns="http://www.w3.org/2000/svg" version="1.1" xmlns:xlink="http://www.w3.org/1999/xlink" xmlns:svgjs="http://svgjs.com/svgjs"><defs id="SvgjsDefs1007"><pattern patternUnits="userSpaceOnUse" id="pattern_mark_0" width="300" height="300"><text x="150" y="100" fill="rgba(229,229,229,0.8)" font-size="18" transform="rotate(-45, 150, 150)" style="dominant-baseline: middle; text-anchor: middle;"></text></pattern><pattern patternUnits="userSpaceOnUse" id="pattern_mark_1" width="300" height="300"><text x="150" y="200" fill="rgba(229,229,229,0.8)" font-size="18" transform="rotate(-45, 150, 150)" style="dominant-baseline: middle; text-anchor: middle;"></text></pattern><marker id="SvgjsMarker1013" markerWidth="13" markerHeight="9" refX="9.5" refY="4.5" viewBox="0 0 13 9" orient="auto" markerUnits="userSpaceOnUse" stroke-dasharray="0,0"><path id="SvgjsPath1014" d="M0,0 L13,4.5 L0,9 L0,0" fill="#9e9e9e" stroke="#9e9e9e" stroke-width="1"></path></marker><marker id="SvgjsMarker1065" markerWidth="13" markerHeight="9" refX="9.5" refY="4.5" viewBox="0 0 13 9" orient="auto" markerUnits="userSpaceOnUse" stroke-dasharray="0,0"><path id="SvgjsPath1066" d="M0,0 L13,4.5 L0,9 L0,0" fill="#323232" stroke="#323232" stroke-width="1"></path></marker><marker id="SvgjsMarker1075" markerWidth="13" markerHeight="9" refX="9.5" refY="4.5" viewBox="0 0 13 9" orient="auto" markerUnits="userSpaceOnUse" stroke-dasharray="0,0"><path id="SvgjsPath1076" d="M0,0 L13,4.5 L0,9 L0,0" fill="#323232" stroke="#323232" stroke-width="1"></path></marker><marker id="SvgjsMarker1089" markerWidth="13" markerHeight="9" refX="9.5" refY="4.5" viewBox="0 0 13 9" orient="auto" markerUnits="userSpaceOnUse" stroke-dasharray="0,0"><path id="SvgjsPath1090" d="M0,0 L13,4.5 L0,9 L0,0" fill="#323232" stroke="#323232" stroke-width="1"></path></marker><marker id="SvgjsMarker1103" markerWidth="13" markerHeight="9" refX="9.5" refY="4.5" viewBox="0 0 13 9" orient="auto" markerUnits="userSpaceOnUse" stroke-dasharray="0,0"><path id="SvgjsPath1104" d="M0,0 L13,4.5 L0,9 L0,0" fill="#323232" stroke="#323232" stroke-width="1"></path></marker><marker id="SvgjsMarker1115" markerWidth="13" markerHeight="9" refX="9.5" refY="4.5" viewBox="0 0 13 9" orient="auto" markerUnits="userSpaceOnUse" stroke-dasharray="0,0"><path id="SvgjsPath1116" d="M0,0 L13,4.5 L0,9 L0,0" fill="#323232" stroke="#323232" stroke-width="1"></path></marker><marker id="SvgjsMarker1129" markerWidth="13" markerHeight="9" refX="9.5" refY="4.5" viewBox="0 0 13 9" orient="auto" markerUnits="userSpaceOnUse" stroke-dasharray="0,0"><path id="SvgjsPath1130" d="M0,0 L13,4.5 L0,9 L0,0" fill="#323232" stroke="#323232" stroke-width="1"></path></marker><marker id="SvgjsMarker1139" markerWidth="13" markerHeight="9" refX="9.5" refY="4.5" viewBox="0 0 13 9" orient="auto" markerUnits="userSpaceOnUse" stroke-dasharray="0,0"><path id="SvgjsPath1140" d="M0,0 L13,4.5 L0,9 L0,0" fill="#323232" stroke="#323232" stroke-width="1"></path></marker><marker id="SvgjsMarker1151" markerWidth="13" markerHeight="9" refX="9.5" refY="4.5" viewBox="0 0 13 9" orient="auto" markerUnits="userSpaceOnUse" stroke-dasharray="0,0"><path id="SvgjsPath1152" d="M0,0 L13,4.5 L0,9 L0,0" fill="#323232" stroke="#323232" stroke-width="1"></path></marker><marker id="SvgjsMarker1171" markerWidth="13" markerHeight="9" refX="9.5" refY="4.5" viewBox="0 0 13 9" orient="auto" markerUnits="userSpaceOnUse" stroke-dasharray="0,0"><path id="SvgjsPath1172" d="M0,0 L13,4.5 L0,9 L0,0" fill="#323232" stroke="#323232" stroke-width="1"></path></marker><marker id="SvgjsMarker1175" markerWidth="13" markerHeight="9" refX="9.5" refY="4.5" viewBox="0 0 13 9" orient="auto" markerUnits="userSpaceOnUse" stroke-dasharray="0,0"><path id="SvgjsPath1176" d="M0,0 L13,4.5 L0,9 L0,0" fill="#323232" stroke="#323232" stroke-width="1"></path></marker><marker id="SvgjsMarker1215" markerWidth="13" markerHeight="9" refX="9.5" refY="4.5" viewBox="0 0 13 9" orient="auto" markerUnits="userSpaceOnUse" stroke-dasharray="0,0"><path id="SvgjsPath1216" d="M0,0 L13,4.5 L0,9 L0,0" fill="#323232" stroke="#323232" stroke-width="1"></path></marker><marker id="SvgjsMarker1219" markerWidth="13" markerHeight="9" refX="9.5" refY="4.5" viewBox="0 0 13 9" orient="auto" markerUnits="userSpaceOnUse" stroke-dasharray="0,0"><path id="SvgjsPath1220" d="M0,0 L13,4.5 L0,9 L0,0" fill="#323232" stroke="#323232" stroke-width="1"></path></marker><marker id="SvgjsMarker1223" markerWidth="13" markerHeight="9" refX="9.5" refY="4.5" viewBox="0 0 13 9" orient="auto" markerUnits="userSpaceOnUse" stroke-dasharray="0,0"><path id="SvgjsPath1224" d="M0,0 L13,4.5 L0,9 L0,0" fill="#323232" stroke="#323232" stroke-width="1"></path></marker><marker id="SvgjsMarker1227" markerWidth="13" markerHeight="9" refX="9.5" refY="4.5" viewBox="0 0 13 9" orient="auto" markerUnits="userSpaceOnUse" stroke-dasharray="0,0"><path id="SvgjsPath1228" d="M0,0 L13,4.5 L0,9 L0,0" fill="#323232" stroke="#323232" stroke-width="1"></path></marker><marker id="SvgjsMarker1231" markerWidth="13" markerHeight="9" refX="9.5" refY="4.5" viewBox="0 0 13 9" orient="auto" markerUnits="userSpaceOnUse" stroke-dasharray="0,0"><path id="SvgjsPath1232" d="M0,0 L13,4.5 L0,9 L0,0" fill="#323232" stroke="#323232" stroke-width="1"></path></marker><marker id="SvgjsMarker1235" markerWidth="13" markerHeight="9" refX="9.5" refY="4.5" viewBox="0 0 13 9" orient="auto" markerUnits="userSpaceOnUse" stroke-dasharray="0,0"><path id="SvgjsPath1236" d="M0,0 L13,4.5 L0,9 L0,0" fill="#323232" stroke="#323232" stroke-width="1"></path></marker></defs><rect id="svgbackgroundid" width="1458.4073728256226" height="784" fill="transparent"></rect><rect id="SvgjsRect1009" width="1458.4073728256226" height="784" fill="url(#pattern_mark_0)"></rect><rect id="SvgjsRect1010" width="1458.4073728256226" height="784" fill="url(#pattern_mark_1)"></rect><g id="SvgjsG1011"><path id="SvgjsPath1012" d="M1383.9701809202616 196.49572880550647C 1559.4073880844117 339 -154.5926119155884 224 39.182375623652206 576.5938865664385" stroke-dasharray="7.5,3" stroke="#9e9e9e" stroke-width="1.5" fill="none" marker-end="url(#SvgjsMarker1013)"></path></g><g id="SvgjsG1015" transform="translate(34.40737282562253,175)"><path id="SvgjsPath1016" d="M 0 0L 248.93252032520323 0L 248.93252032520323 42L 0 42Z" stroke="rgba(162,60,115,1)" stroke-width="1.5" fill-opacity="1" fill="#efeceb"></path><g id="SvgjsG1017"><text id="SvgjsText1018" font-family="&quot;Microsoft YaHei&quot;, 微软雅黑, Arial" text-anchor="middle" font-size="15px" width="229px" fill="#323232" font-weight="400" align="middle" lineHeight="125%" anchor="middle" family="&quot;Microsoft YaHei&quot;, 微软雅黑, Arial" size="15px" weight="400" font-style="" opacity="1" y="8.625" transform="rotate(0)"><tspan id="SvgjsTspan1019" dy="18.75" x="124.5"><tspan id="SvgjsTspan1020" style="">2020-11-20T17:19:43.265-0800:</tspan></tspan></text></g></g><g id="SvgjsG1021" transform="translate(299.4000557524518,175)"><path id="SvgjsPath1022" d="M 0 0L 73.41788617886179 0L 73.41788617886179 42L 0 42Z" stroke="rgba(162,60,115,1)" stroke-width="1.5" fill-opacity="1" fill="#e7ebed"></path><g id="SvgjsG1023"><text id="SvgjsText1024" font-family="&quot;Microsoft YaHei&quot;, 微软雅黑, Arial" text-anchor="middle" font-size="15px" width="54px" fill="#323232" font-weight="400" align="middle" lineHeight="125%" anchor="middle" family="&quot;Microsoft YaHei&quot;, 微软雅黑, Arial" size="15px" weight="400" font-style="" opacity="1" y="8.625" transform="rotate(0)"><tspan id="SvgjsTspan1025" dy="18.75" x="37"><tspan id="SvgjsTspan1026" style="">0.822:</tspan></tspan></text></g></g><g id="SvgjsG1027" transform="translate(388.87810453293963,175)"><path id="SvgjsPath1028" d="M 0 0L 227.13658536585368 0L 227.13658536585368 42L 0 42Z" stroke="rgba(162,60,115,1)" stroke-width="1.5" fill-opacity="1" fill="#fadcdb"></path><g id="SvgjsG1029"><text id="SvgjsText1030" font-family="&quot;Microsoft YaHei&quot;, 微软雅黑, Arial" text-anchor="middle" font-size="15px" width="208px" fill="#323232" font-weight="400" align="middle" lineHeight="125%" anchor="middle" family="&quot;Microsoft YaHei&quot;, 微软雅黑, Arial" size="15px" weight="400" font-style="" opacity="1" y="8.625" transform="rotate(0)"><tspan id="SvgjsTspan1031" dy="18.75" x="114"><tspan id="SvgjsTspan1032" style="">[GC (ALLOCATION FAILURE)</tspan></tspan></text></g></g><g id="SvgjsG1033" transform="translate(632.0748525004192,175)"><path id="SvgjsPath1034" d="M 0 0L 345.2934959349594 0L 345.2934959349594 42L 0 42Z" stroke="rgba(162,60,115,1)" stroke-width="1.5" fill-opacity="1" fill="#fcf9ea"></path><g id="SvgjsG1035"><text id="SvgjsText1036" font-family="&quot;Microsoft YaHei&quot;, 微软雅黑, Arial" text-anchor="middle" font-size="15px" width="326px" fill="#323232" font-weight="400" align="middle" lineHeight="125%" anchor="middle" family="&quot;Microsoft YaHei&quot;, 微软雅黑, Arial" size="15px" weight="400" font-style="" opacity="1" y="8.625" transform="rotate(0)"><tspan id="SvgjsTspan1037" dy="18.75" x="173"><tspan id="SvgjsTspan1038" style="">[PSYOUNGGEN: 76800K-&gt;8433K(89600K)]</tspan></tspan></text></g></g><g id="SvgjsG1039" transform="translate(993.4285110370047,175)"><path id="SvgjsPath1040" d="M 0 0L 217.95934959349597 0L 217.95934959349597 42L 0 42Z" stroke="rgba(162,60,115,1)" stroke-width="1.5" fill-opacity="1" fill="#e5f6da"></path><g id="SvgjsG1041"><text id="SvgjsText1042" font-family="&quot;Microsoft YaHei&quot;, 微软雅黑, Arial" text-anchor="middle" font-size="15px" width="198px" fill="#323232" font-weight="400" align="middle" lineHeight="125%" anchor="middle" family="&quot;Microsoft YaHei&quot;, 微软雅黑, Arial" size="15px" weight="400" font-style="" opacity="1" y="8.625" transform="rotate(0)"><tspan id="SvgjsTspan1043" dy="18.75" x="109"><tspan id="SvgjsTspan1044" style="">76800K-&gt;8449K(294400K),</tspan></tspan></text></g></g><g id="SvgjsG1045" transform="translate(1227.4480232321266,175)"><path id="SvgjsPath1046" d="M 0 0L 155.95934959349597 0L 155.95934959349597 42L 0 42Z" stroke="rgba(162,60,115,1)" stroke-width="1.5" fill-opacity="1" fill="#d2d6f9"></path><g id="SvgjsG1047"><text id="SvgjsText1048" font-family="&quot;Microsoft YaHei&quot;, 微软雅黑, Arial" text-anchor="middle" font-size="15px" width="136px" fill="#323232" font-weight="400" align="middle" lineHeight="125%" anchor="middle" family="&quot;Microsoft YaHei&quot;, 微软雅黑, Arial" size="15px" weight="400" font-style="" opacity="1" y="8.625" transform="rotate(0)"><tspan id="SvgjsTspan1049" dy="18.75" x="78"><tspan id="SvgjsTspan1050" style=""> 0.0088371 SECS]</tspan></tspan></text></g></g><g id="SvgjsG1051" transform="translate(40.40737282562253,558)"><path id="SvgjsPath1052" d="M 0 0L 375 0L 375 42L 0 42Z" stroke="rgba(162,60,115,1)" stroke-width="1.5" fill-opacity="1" fill="#fadded"></path><g id="SvgjsG1053"><text id="SvgjsText1054" font-family="&quot;Microsoft YaHei&quot;, 微软雅黑, Arial" text-anchor="middle" font-size="15px" width="355px" fill="#323232" font-weight="400" align="middle" lineHeight="125%" anchor="middle" family="&quot;Microsoft YaHei&quot;, 微软雅黑, Arial" size="15px" weight="400" font-style="" opacity="1" y="8.625" transform="rotate(0)"><tspan id="SvgjsTspan1055" dy="18.75" x="187.5"><tspan id="SvgjsTspan1056" style="">[TIMES: USER=0.02 SYS=0.01，REAL=0.01 SECS]</tspan></tspan></text></g></g><g id="SvgjsG1057" transform="translate(90.87363298822413,63)"><path id="SvgjsPath1058" d="M 0 4Q 0 0 4 0L 132 0Q 136 0 136 4L 136 41Q 136 45 132 45L 4 45Q 0 45 0 41Z" stroke="rgba(239,236,235,1)" stroke-width="1.5" fill-opacity="1" fill="#efeceb"></path><g id="SvgjsG1059"><text id="SvgjsText1060" font-family="&quot;Microsoft YaHei&quot;, 微软雅黑, Arial" text-anchor="middle" font-size="15px" width="116px" fill="#323232" font-weight="400" align="middle" lineHeight="125%" anchor="middle" family="&quot;Microsoft YaHei&quot;, 微软雅黑, Arial" size="15px" weight="400" font-style="" opacity="1" y="10.125" transform="rotate(0)"><tspan id="SvgjsTspan1061" dy="18.75" x="68"><tspan id="SvgjsTspan1062" style="">日志打印时间</tspan></tspan></text></g></g><g id="SvgjsG1063"><path id="SvgjsPath1064" d="M158.87363298822413 108.75L158.87363298822413 141.5L158.87363298822413 141.5L158.87363298822413 172.3" stroke="#323232" stroke-width="1.5" fill="none" marker-end="url(#SvgjsMarker1065)"></path></g><g id="SvgjsG1067" transform="translate(172.34212892318357,284)"><path id="SvgjsPath1068" d="M 0 4Q 0 0 4 0L 323.53373983739834 0Q 327.53373983739834 0 327.53373983739834 4L 327.53373983739834 41Q 327.53373983739834 45 323.53373983739834 45L 4 45Q 0 45 0 41Z" stroke="rgba(231,235,237,1)" stroke-width="1.5" fill-opacity="1" fill="#e7ebed"></path><g id="SvgjsG1069"><text id="SvgjsText1070" font-family="&quot;Microsoft YaHei&quot;, 微软雅黑, Arial" text-anchor="middle" font-size="15px" width="308px" fill="#323232" font-weight="400" align="middle" lineHeight="125%" anchor="middle" family="&quot;Microsoft YaHei&quot;, 微软雅黑, Arial" size="15px" weight="400" font-style="" opacity="1" y="10.125" transform="rotate(0)"><tspan id="SvgjsTspan1071" dy="18.75" x="164"><tspan id="SvgjsTspan1072" style="">GC 发生时，Java 虚拟机启动以来经过的秒数</tspan></tspan></text></g></g><g id="SvgjsG1073"><path id="SvgjsPath1074" d="M336.10899884188274 283.25L336.10899884188274 250.5L336.10899884188274 250.5L336.10899884188274 219.7" stroke="#323232" stroke-width="1.5" fill="none" marker-end="url(#SvgjsMarker1075)"></path></g><g id="SvgjsG1077" transform="translate(256.0824744516388,25)"><path id="SvgjsPath1078" d="M 0 4Q 0 0 4 0L 488.7278455284553 0Q 492.7278455284553 0 492.7278455284553 4L 492.7278455284553 79Q 492.7278455284553 83 488.7278455284553 83L 4 83Q 0 83 0 79Z" stroke="rgba(250,220,219,1)" stroke-width="1.5" fill-opacity="1" fill="#fadcdb"></path><g id="SvgjsG1079"><text id="SvgjsText1080" font-family="&quot;Microsoft YaHei&quot;, 微软雅黑, Arial" text-anchor="start" font-size="15px" width="473px" fill="#323232" font-weight="400" align="middle" lineHeight="125%" anchor="start" family="&quot;Microsoft YaHei&quot;, 微软雅黑, Arial" size="15px" weight="400" font-style="" opacity="1" y="10.625" transform="rotate(0)"><tspan id="SvgjsTspan1081" dy="18.75" x="10"><tspan id="SvgjsTspan1082" style="">发生了一次垃圾回收，这是一次 Minior GC。它不区分新生代还是老年</tspan></tspan><tspan id="SvgjsTspan1083" dy="18.75" x="10"><tspan id="SvgjsTspan1084" style="">代 GC，括号里的内容是 GC 发生的原因，这里的 Allocation Failure </tspan></tspan><tspan id="SvgjsTspan1085" dy="18.75" x="10"><tspan id="SvgjsTspan1086" style="">的原因是新生代中没有足够区域能够存放需要分配的数据而失败</tspan></tspan></text></g></g><g id="SvgjsG1087"><path id="SvgjsPath1088" d="M502.4463972158664 108.75L502.4463972158664 141.5L502.4463972158664 141.5L502.4463972158664 172.3" stroke="#323232" stroke-width="1.5" fill="none" marker-end="url(#SvgjsMarker1089)"></path></g><g id="SvgjsG1091" transform="translate(577.4073728256226,284)"><path id="SvgjsPath1092" d="M 0 4Q 0 0 4 0L 214 0Q 218 0 218 4L 218 84Q 218 88 214 88L 4 88Q 0 88 0 84Z" stroke="rgba(252,249,234,1)" stroke-width="1.5" fill-opacity="1" fill="#fcf9ea"></path><g id="SvgjsG1093"><text id="SvgjsText1094" font-family="&quot;Microsoft YaHei&quot;, 微软雅黑, Arial" text-anchor="start" font-size="15px" width="198px" fill="#323232" font-weight="400" align="middle" lineHeight="125%" anchor="start" family="&quot;Microsoft YaHei&quot;, 微软雅黑, Arial" size="15px" weight="400" font-style="" opacity="1" y="13.125" transform="rotate(0)"><tspan id="SvgjsTspan1095" dy="18.75" x="10"><tspan id="SvgjsTspan1096" style="">PSYoungGen：表示 GC 发生</tspan></tspan><tspan id="SvgjsTspan1097" dy="18.75" x="10"><tspan id="SvgjsTspan1098" style="">的区域，区域名称与使用的 </tspan></tspan><tspan id="SvgjsTspan1099" dy="18.75" x="10"><tspan id="SvgjsTspan1100" style="">GC 收集器是密切相关的</tspan></tspan></text></g></g><g id="SvgjsG1101"><path id="SvgjsPath1102" d="M701.4073728256226 283.25L701.4073728256226 250.5L701.4073728256226 250.5L701.4073728256226 219.7" stroke="#323232" stroke-width="1.5" fill="none" marker-end="url(#SvgjsMarker1103)"></path></g><g id="SvgjsG1105" transform="translate(817.4073728256226,284)"><path id="SvgjsPath1106" d="M 0 4Q 0 0 4 0L 332 0Q 336 0 336 4L 336 84Q 336 88 332 88L 4 88Q 0 88 0 84Z" stroke="rgba(252,249,234,1)" stroke-width="1.5" fill-opacity="1" fill="#fcf9ea"></path><g id="SvgjsG1107"><text id="SvgjsText1108" font-family="&quot;Microsoft YaHei&quot;, 微软雅黑, Arial" text-anchor="start" font-size="15px" width="316px" fill="#323232" font-weight="400" align="middle" lineHeight="125%" anchor="start" family="&quot;Microsoft YaHei&quot;, 微软雅黑, Arial" size="15px" weight="400" font-style="" opacity="1" y="22.125" transform="rotate(0)"><tspan id="SvgjsTspan1109" dy="18.75" x="10"><tspan id="SvgjsTspan1110" style="">76800K-&gt;8433K(89600K)：GC前该内存区域</tspan></tspan><tspan id="SvgjsTspan1111" dy="18.75" x="10"><tspan id="SvgjsTspan1112" style="">已使用容量-&gt;GC后盖区域容量(该区域总容量)</tspan></tspan></text></g></g><g id="SvgjsG1113"><path id="SvgjsPath1114" d="M901.4073728256226 283.25L901.4073728256226 250.5L901.4073728256226 250.5L901.4073728256226 219.7" stroke="#323232" stroke-width="1.5" fill="none" marker-end="url(#SvgjsMarker1115)"></path></g><g id="SvgjsG1117" transform="translate(828.7258179475739,25)"><path id="SvgjsPath1118" d="M 0 4Q 0 0 4 0L 543.3647357723576 0Q 547.3647357723576 0 547.3647357723576 4L 547.3647357723576 79Q 547.3647357723576 83 543.3647357723576 83L 4 83Q 0 83 0 79Z" stroke="rgba(229,246,218,1)" stroke-width="1.5" fill-opacity="1" fill="#e5f6da"></path><g id="SvgjsG1119"><text id="SvgjsText1120" font-family="&quot;Microsoft YaHei&quot;, 微软雅黑, Arial" text-anchor="start" font-size="15px" width="528px" fill="#323232" font-weight="400" align="middle" lineHeight="125%" anchor="start" family="&quot;Microsoft YaHei&quot;, 微软雅黑, Arial" size="15px" weight="400" font-style="" opacity="1" y="10.625" transform="rotate(0)"><tspan id="SvgjsTspan1121" dy="18.75" x="10"><tspan id="SvgjsTspan1122" style="">在显示完区域容量 GC 的情况之后，会接着显示整个堆内存区域的 GC 情况：</tspan></tspan><tspan id="SvgjsTspan1123" dy="18.75" x="10"><tspan id="SvgjsTspan1124" style="">GC 前堆内存已使用容量 -&gt; GC 后堆内存容量（堆内存总容量），并且堆内存总</tspan></tspan><tspan id="SvgjsTspan1125" dy="18.75" x="10"><tspan id="SvgjsTspan1126" style="">容量 = 9/10 新生代 + 老年代，然后堆内存总容量肯定小于初始化的内存大小</tspan></tspan></text></g></g><g id="SvgjsG1127"><path id="SvgjsPath1128" d="M1102.4081858337527 174.25L1102.4081858337527 141.5L1102.4081858337527 141.5L1102.4081858337527 110.69999999999999" stroke="#323232" stroke-width="1.5" fill="none" marker-end="url(#SvgjsMarker1129)"></path></g><g id="SvgjsG1131" transform="translate(1184.9378606305006,284)"><path id="SvgjsPath1132" d="M 0 4Q 0 0 4 0L 236.979674796748 0Q 240.979674796748 0 240.979674796748 4L 240.979674796748 54Q 240.979674796748 58 236.979674796748 58L 4 58Q 0 58 0 54Z" stroke="rgba(210,214,249,1)" stroke-width="1.5" fill-opacity="1" fill="#d2d6f9"></path><g id="SvgjsG1133"><text id="SvgjsText1134" font-family="&quot;Microsoft YaHei&quot;, 微软雅黑, Arial" text-anchor="start" font-size="15px" width="221px" fill="#323232" font-weight="400" align="middle" lineHeight="125%" anchor="start" family="&quot;Microsoft YaHei&quot;, 微软雅黑, Arial" size="15px" weight="400" font-style="" opacity="1" y="16.625" transform="rotate(0)"><tspan id="SvgjsTspan1135" dy="18.75" x="10"><tspan id="SvgjsTspan1136" style="">整个GC所花费的时间，单位是秒</tspan></tspan></text></g></g><g id="SvgjsG1137"><path id="SvgjsPath1138" d="M1305.4276980288746 283.25L1305.4276980288746 250.5L1305.4276980288746 250.5L1305.4276980288746 219.7" stroke="#323232" stroke-width="1.5" fill="none" marker-end="url(#SvgjsMarker1139)"></path></g><g id="SvgjsG1141" transform="translate(34.40737282562253,701)"><path id="SvgjsPath1142" d="M 0 4Q 0 0 4 0L 174.989837398374 0Q 178.989837398374 0 178.989837398374 4L 178.989837398374 54Q 178.989837398374 58 174.989837398374 58L 4 58Q 0 58 0 54Z" stroke="rgba(250,221,237,1)" stroke-width="1.5" fill-opacity="1" fill="#fadded"></path><g id="SvgjsG1143"><text id="SvgjsText1144" font-family="&quot;Microsoft YaHei&quot;, 微软雅黑, Arial" text-anchor="start" font-size="15px" width="159px" fill="#323232" font-weight="400" align="middle" lineHeight="125%" anchor="start" family="&quot;Microsoft YaHei&quot;, 微软雅黑, Arial" size="15px" weight="400" font-style="" opacity="1" y="7.125" transform="rotate(0)"><tspan id="SvgjsTspan1145" dy="18.75" x="10"><tspan id="SvgjsTspan1146" style="">user：指CPU工作在用</tspan></tspan><tspan id="SvgjsTspan1147" dy="18.75" x="10"><tspan id="SvgjsTspan1148" style="">户态所花费的时间</tspan></tspan></text></g></g><g id="SvgjsG1149"><path id="SvgjsPath1150" d="M123.9578690981109 700.2520620792166L131.20729356173752 602.6925765148205" stroke="#323232" stroke-width="1.5" fill="none" marker-end="url(#SvgjsMarker1151)"></path></g><g id="SvgjsG1153" transform="translate(229.4000557524518,701)"><path id="SvgjsPath1154" d="M 0 4Q 0 0 4 0L 174.989837398374 0Q 178.989837398374 0 178.989837398374 4L 178.989837398374 54Q 178.989837398374 58 174.989837398374 58L 4 58Q 0 58 0 54Z" stroke="rgba(250,221,237,1)" stroke-width="1.5" fill-opacity="1" fill="#fadded"></path><g id="SvgjsG1155"><text id="SvgjsText1156" font-family="&quot;Microsoft YaHei&quot;, 微软雅黑, Arial" text-anchor="start" font-size="15px" width="159px" fill="#323232" font-weight="400" align="middle" lineHeight="125%" anchor="start" family="&quot;Microsoft YaHei&quot;, 微软雅黑, Arial" size="15px" weight="400" font-style="" opacity="1" y="7.125" transform="rotate(0)"><tspan id="SvgjsTspan1157" dy="18.75" x="10"><tspan id="SvgjsTspan1158" style="">sys：指CPU工作在内核</tspan></tspan><tspan id="SvgjsTspan1159" dy="18.75" x="10"><tspan id="SvgjsTspan1160" style="">态所花费的时间</tspan></tspan></text></g></g><g id="SvgjsG1161" transform="translate(429.8758687605819,701)"><path id="SvgjsPath1162" d="M 0 4Q 0 0 4 0L 174.989837398374 0Q 178.989837398374 0 178.989837398374 4L 178.989837398374 54Q 178.989837398374 58 174.989837398374 58L 4 58Q 0 58 0 54Z" stroke="rgba(250,221,237,1)" stroke-width="1.5" fill-opacity="1" fill="#fadded"></path><g id="SvgjsG1163"><text id="SvgjsText1164" font-family="&quot;Microsoft YaHei&quot;, 微软雅黑, Arial" text-anchor="start" font-size="15px" width="159px" fill="#323232" font-weight="400" align="middle" lineHeight="125%" anchor="start" family="&quot;Microsoft YaHei&quot;, 微软雅黑, Arial" size="15px" weight="400" font-style="" opacity="1" y="7.125" transform="rotate(0)"><tspan id="SvgjsTspan1165" dy="18.75" x="10"><tspan id="SvgjsTspan1166" style="">real：指在此次事件中</tspan></tspan><tspan id="SvgjsTspan1167" dy="18.75" x="10"><tspan id="SvgjsTspan1168" style="">所花费的总时间</tspan></tspan></text></g></g><g id="SvgjsG1169"><path id="SvgjsPath1170" d="M318.34370758259087 700.4914679566732L211.3919335541948 601.8307153559766" stroke="#323232" stroke-width="1.5" fill="none" marker-end="url(#SvgjsMarker1171)"></path></g><g id="SvgjsG1173"><path id="SvgjsPath1174" d="M518.6892042933143 700.6870393200323L301.8610722248589 601.1266584478835" stroke="#323232" stroke-width="1.5" fill="none" marker-end="url(#SvgjsMarker1175)"></path></g><g id="SvgjsG1177" transform="translate(554.4073728256226,404)"><path id="SvgjsPath1178" d="M 11 0L 341 0C 355.6666666666667 0 355.6666666666667 33 341 33L 11 33C -3.6666666666666665 33 -3.6666666666666665 0 11 0Z" stroke="rgba(127,127,127,1)" stroke-width="1.5" fill-opacity="1" fill="#f2f2f2"></path><g id="SvgjsG1179"><text id="SvgjsText1180" font-family="&quot;Microsoft YaHei&quot;, 微软雅黑, Arial" text-anchor="middle" font-size="13px" width="332px" fill="#262626" font-weight="400" align="middle" lineHeight="125%" anchor="middle" family="&quot;Microsoft YaHei&quot;, 微软雅黑, Arial" size="13px" weight="400" font-style="" opacity="1" y="5.875" transform="rotate(0)"><tspan id="SvgjsTspan1181" dy="16.25" x="176"><tspan id="SvgjsTspan1182" style="">Serial收集器：Default New Generation 显示Defnew</tspan></tspan></text></g></g><g id="SvgjsG1183" transform="translate(554.4073728256226,437)"><path id="SvgjsPath1184" d="M 11 0L 341 0C 355.6666666666667 0 355.6666666666667 33 341 33L 11 33C -3.6666666666666665 33 -3.6666666666666665 0 11 0Z" stroke="rgba(127,127,127,1)" stroke-width="1.5" fill-opacity="1" fill="#f2f2f2"></path><g id="SvgjsG1185"><text id="SvgjsText1186" font-family="&quot;Microsoft YaHei&quot;, 微软雅黑, Arial" text-anchor="middle" font-size="13px" width="332px" fill="#262626" font-weight="400" align="middle" lineHeight="125%" anchor="middle" family="&quot;Microsoft YaHei&quot;, 微软雅黑, Arial" size="13px" weight="400" font-style="" opacity="1" y="5.875" transform="rotate(0)"><tspan id="SvgjsTspan1187" dy="16.25" x="176"><tspan id="SvgjsTspan1188" style="">ParNew收集器：ParNew</tspan></tspan></text></g></g><g id="SvgjsG1189" transform="translate(554.4073728256226,469)"><path id="SvgjsPath1190" d="M 11 0L 341 0C 355.6666666666667 0 355.6666666666667 33 341 33L 11 33C -3.6666666666666665 33 -3.6666666666666665 0 11 0Z" stroke="rgba(127,127,127,1)" stroke-width="1.5" fill-opacity="1" fill="#f2f2f2"></path><g id="SvgjsG1191"><text id="SvgjsText1192" font-family="&quot;Microsoft YaHei&quot;, 微软雅黑, Arial" text-anchor="middle" font-size="13px" width="332px" fill="#262626" font-weight="400" align="middle" lineHeight="125%" anchor="middle" family="&quot;Microsoft YaHei&quot;, 微软雅黑, Arial" size="13px" weight="400" font-style="" opacity="1" y="5.875" transform="rotate(0)"><tspan id="SvgjsTspan1193" dy="16.25" x="176"><tspan id="SvgjsTspan1194" style="">Parallel Scanvenge收集器：PSYoung</tspan></tspan></text></g></g><g id="SvgjsG1195" transform="translate(554.4073728256226,501)"><path id="SvgjsPath1196" d="M 11 0L 341 0C 355.6666666666667 0 355.6666666666667 33 341 33L 11 33C -3.6666666666666665 33 -3.6666666666666665 0 11 0Z" stroke="rgba(127,127,127,1)" stroke-width="1.5" fill-opacity="1" fill="#f2f2f2"></path><g id="SvgjsG1197"><text id="SvgjsText1198" font-family="&quot;Microsoft YaHei&quot;, 微软雅黑, Arial" text-anchor="middle" font-size="13px" width="332px" fill="#262626" font-weight="400" align="middle" lineHeight="125%" anchor="middle" family="&quot;Microsoft YaHei&quot;, 微软雅黑, Arial" size="13px" weight="400" font-style="" opacity="1" y="5.875" transform="rotate(0)"><tspan id="SvgjsTspan1199" dy="16.25" x="176"><tspan id="SvgjsTspan1200" style="">老年代和新生代同理，也是和收集器名称相关</tspan></tspan></text></g></g><g id="SvgjsG1201" transform="translate(961.4073728256226,404)"><path id="SvgjsPath1202" d="M 11 0L 461 0C 475.6666666666667 0 475.6666666666667 33 461 33L 11 33C -3.6666666666666665 33 -3.6666666666666665 0 11 0Z" stroke="rgba(127,127,127,1)" stroke-width="1.5" fill-opacity="1" fill="#f2f2f2"></path><g id="SvgjsG1203"><text id="SvgjsText1204" font-family="&quot;Microsoft YaHei&quot;, 微软雅黑, Arial" text-anchor="middle" font-size="13px" width="452px" fill="#262626" font-weight="400" align="middle" lineHeight="125%" anchor="middle" family="&quot;Microsoft YaHei&quot;, 微软雅黑, Arial" size="13px" weight="400" font-style="" opacity="1" y="5.875" transform="rotate(0)"><tspan id="SvgjsTspan1205" dy="16.25" x="236"><tspan id="SvgjsTspan1206" style="">如果是新生代，总容量则会显示整个新生代内存的9/10，即eden+from/to区</tspan></tspan></text></g></g><g id="SvgjsG1207" transform="translate(961.4073728256226,437)"><path id="SvgjsPath1208" d="M 11 0L 461 0C 475.6666666666667 0 475.6666666666667 33 461 33L 11 33C -3.6666666666666665 33 -3.6666666666666665 0 11 0Z" stroke="rgba(127,127,127,1)" stroke-width="1.5" fill-opacity="1" fill="#f2f2f2"></path><g id="SvgjsG1209"><text id="SvgjsText1210" font-family="&quot;Microsoft YaHei&quot;, 微软雅黑, Arial" text-anchor="middle" font-size="13px" width="452px" fill="#262626" font-weight="400" align="middle" lineHeight="125%" anchor="middle" family="&quot;Microsoft YaHei&quot;, 微软雅黑, Arial" size="13px" weight="400" font-style="" opacity="1" y="5.875" transform="rotate(0)"><tspan id="SvgjsTspan1211" dy="16.25" x="236"><tspan id="SvgjsTspan1212" style="">如果是老年代，总容量则是全身内存大小，无变化</tspan></tspan></text></g></g><g id="SvgjsG1213"><path id="SvgjsPath1214" d="M576.6573728256226 328L524.4073728256226 328L524.4073728256226 517.5L551.7073728256225 517.5" stroke="#323232" stroke-width="1.5" fill="none" marker-end="url(#SvgjsMarker1215)"></path></g><g id="SvgjsG1217"><path id="SvgjsPath1218" d="M576.6573728256226 328L524.4073728256226 328L524.4073728256226 420.5L551.7073728256225 420.5" stroke="#323232" stroke-width="1.5" fill="none" marker-end="url(#SvgjsMarker1219)"></path></g><g id="SvgjsG1221"><path id="SvgjsPath1222" d="M576.6573728256226 328L524.4073728256226 328L524.4073728256226 453.5L551.7073728256225 453.5" stroke="#323232" stroke-width="1.5" fill="none" marker-end="url(#SvgjsMarker1223)"></path></g><g id="SvgjsG1225"><path id="SvgjsPath1226" d="M576.6573728256226 328L524.4073728256226 328L524.4073728256226 485.5L551.7073728256225 485.5" stroke="#323232" stroke-width="1.5" fill="none" marker-end="url(#SvgjsMarker1227)"></path></g><g id="SvgjsG1229"><path id="SvgjsPath1230" d="M940.4073728256226 372.75L940.4073728256226 420.5L958.7073728256225 420.5" stroke="#323232" stroke-width="1.5" fill="none" marker-end="url(#SvgjsMarker1231)"></path></g><g id="SvgjsG1233"><path id="SvgjsPath1234" d="M940.4073728256226 372.75L940.4073728256226 453.5L958.7073728256225 453.5" stroke="#323232" stroke-width="1.5" fill="none" marker-end="url(#SvgjsMarker1235)"></path></g><g id="SvgjsG1237"></g></svg>