<?xml version="1.0" standalone="no"?><!DOCTYPE svg PUBLIC "-//W3C//DTD SVG 1.1//EN" "http://www.w3.org/Graphics/SVG/1.1/DTD/svg11.dtd"><svg t="1564533739806" class="icon" viewBox="0 0 1024 1024" version="1.1" xmlns="http://www.w3.org/2000/svg" p-id="29681" width="700" height="700" xmlns:xlink="http://www.w3.org/1999/xlink"><defs><style type="text/css"></style></defs><path d="M320.615822 1023.995966c-67.460328-139.735289-31.543207-219.901851 20.14703-295.245712 56.505879-82.35604 71.403607-164.270352 71.403607-164.270352s44.242382 57.816943 26.720506 148.063576c78.40671-87.613409 93.30343-226.477345 81.47561-279.920375 177.848948 123.974275 253.636554 392.498472 151.126424 591.372864 544.502302-307.50921 135.363393-767.460951 64.398488-819.594933 23.653624 52.133982 28.030563 139.742349-19.717404 182.232946C635.137211 79.554396 434.509018 16.472015 434.509018 16.472015c23.653624 158.57428-86.296294 331.60557-191.869272 461.268857-3.942271-63.074313-7.884541-106.882026-41.17449-167.338243C194.016392 425.175247 105.972349 518.922421 82.318725 633.68798 50.338832 789.636097 106.408026 903.528285 320.615822 1023.995966L320.615822 1023.995966 320.615822 1023.995966zM320.615822 1023.995966" p-id="29682" data-spm-anchor-id="a313x.7781069.0.i5" class="" fill="#8a8a8a"></path></svg>